<svg width="264" height="60" viewBox="0 0 264 60" fill="none" xmlns="http://www.w3.org/2000/svg">
<path d="M47.8067 38.079V23.9867L44.0757 19.1227V10.9273L32.1155 6.62967V0H15.6913V6.62967L3.73127 10.9273V19.1227L0 23.9867V38.079L3.73127 43.1093L0 54.703L23.92 60L47.8067 54.703L44.0757 43.1093L47.8067 38.079Z" fill="#FFF200"/>
<path d="M23.9532 43.1094C30.5495 43.1094 35.9132 37.7458 35.9132 31.1495C35.9132 24.5532 30.5495 19.1895 23.9532 19.1895C17.3568 19.1895 11.9932 24.5198 11.9932 31.1495C11.9932 37.7791 17.3235 43.1094 23.9532 43.1094Z" fill="black"/>
<path d="M77.7899 46.6409H74.4586V43.3096V39.9779V36.6466V33.3151H71.1272H67.7956V36.6466V39.9779V43.3096V46.6409H64.4642H61.1326V43.3096V39.9779V36.6466V33.3151V29.9836V26.6521V23.3206V19.9891V16.6576V13.3262H64.4642H67.7956V16.6576V19.9891V23.3206V26.6521H71.1272H74.4586V23.3206V19.9891V16.6576V13.3262H77.7899H81.1216V16.6576V19.9891V23.3206V26.6521V29.9836V33.3151V36.6466V39.9779V43.3096V46.6409H77.7899Z" fill="#FFF200"/>
<path d="M103.776 46.6409H100.444H97.1127H93.7814H90.4497H87.1184V43.3096V39.9779V36.6466V33.3151V29.9836V26.6521V23.3206V19.9891V16.6576V13.3262H90.4497H93.7814H97.1127H100.444H103.776H107.107V16.6576V19.9891H103.776H100.444H97.1127H93.7814V23.3206V26.6521H97.1127H100.444H103.776H107.107V29.9836V33.3151H103.776H100.444H97.1127H93.7814V36.6466V39.9779H97.1127H100.444H103.776H107.107V43.3096V46.6409H103.776Z" fill="#FFF200"/>
<path d="M129.761 46.6409H126.43V43.3096V39.9779V36.6466V33.3151H123.098H119.767V36.6466V39.9779V43.3096V46.6409H116.435H113.104V43.3096V39.9779V36.6466V33.3151V29.9836V26.6521V23.3206V19.9891V16.6576V13.3262H116.435H119.767H123.098H126.43H129.761H133.093V16.6576V19.9891V23.3206V26.6521V29.9836V33.3151V36.6466V39.9779V43.3096V46.6409H129.761ZM123.098 26.6521H126.43V23.3206V19.9891H123.098H119.767V23.3206V26.6521H123.098Z" fill="#FFF200"/>
<path d="M149.084 46.6409H145.752H142.421H139.089V43.3096V39.9779V36.6466V33.3151V29.9836V26.6521V23.3206V19.9891V16.6576V13.3262H142.421H145.752H149.084H152.415V16.6576V19.9891H155.747H159.078V23.3206V26.6521V29.9836V33.3151V36.6466V39.9779H155.747H152.415V36.6466V33.3151V29.9836V26.6521V23.3206V19.9891H149.084H145.752V23.3206V26.6521V29.9836V33.3151V36.6466V39.9779H149.084H152.415V43.3096V46.6409H149.084Z" fill="#FFF200"/>
<path d="M181.732 46.6409H178.401H175.069H171.738H168.406H165.075V43.3096V39.9779V36.6466V33.3151V29.9836V26.6521V23.3206V19.9891V16.6576V13.3262H168.406H171.738V16.6576V19.9891V23.3206V26.6521V29.9836V33.3151V36.6466V39.9779H175.069H178.401H181.732H185.064V43.3096V46.6409H181.732Z" fill="#FFF200"/>
<path d="M207.718 46.6409H204.386V43.3096V39.9779V36.6466V33.3151H201.055H197.724V36.6466V39.9779V43.3096V46.6409H194.392H191.061V43.3096V39.9779V36.6466V33.3151V29.9836V26.6521V23.3206V19.9891V16.6576V13.3262H194.392H197.724H201.055H204.386H207.718H211.049V16.6576V19.9891V23.3206V26.6521V29.9836V33.3151V36.6466V39.9779V43.3096V46.6409H207.718ZM201.055 26.6521H204.386V23.3206V19.9891H201.055H197.724V23.3206V26.6521H201.055Z" fill="#FFF200"/>
<path d="M233.703 46.6409H230.372V43.3096V39.9779V36.6466V33.3151V29.9836V26.6521H227.041H223.709V29.9836V33.3151V36.6466V39.9779V43.3096V46.6409H220.378H217.046V43.3096V39.9779V36.6466V33.3151V29.9836V26.6521V23.3206V19.9891V16.6576V13.3262H220.378H223.709V16.6576V19.9891H227.041H230.372V16.6576V13.3262H233.703H237.035V16.6576V19.9891V23.3206V26.6521V29.9836V33.3151V36.6466V39.9779V43.3096V46.6409H233.703Z" fill="#FFF200"/>
<path d="M246.363 46.6409H243.031V43.3096V39.9779V36.6466V33.3151V29.9836V26.6521V23.3206V19.9891V16.6576V13.3262H246.363H249.694H253.026H256.358H259.689H263.021V16.6576V19.9891V23.3206V26.6521V29.9836V33.3151H259.689H256.358H253.026H249.694V36.6466V39.9779V43.3096V46.6409H246.363ZM253.026 26.6521H256.358V23.3206V19.9891H253.026H249.694V23.3206V26.6521H253.026Z" fill="#FFF200"/>
</svg>
