<svg width="52" height="62" viewBox="0 0 52 62" fill="none" xmlns="http://www.w3.org/2000/svg">
<path d="M26 61.2001L0 46.1V15.9L26 0.800049L52 15.9V46.1L26 61.2001ZM2 44.9001L26 58.8L50 44.9001V17.1L26 3.20005L2 17.1V44.9001Z" fill="#86CAFE"/>
<g clip-path="url(#clip0_1151_34)">
<path d="M36.6459 37.7918L27.1667 28.3126C28.1042 25.9168 27.5834 23.1043 25.6042 21.1251C23.5209 19.0418 20.3959 18.6251 17.8959 19.7709L22.375 24.2501L19.25 27.3751L14.6667 22.8959C13.4167 25.3959 13.9375 28.5209 16.0209 30.6043C18 32.5834 20.8125 33.1043 23.2084 32.1668L32.6875 41.6459C33.1042 42.0626 33.7292 42.0626 34.1459 41.6459L36.5417 39.2501C37.0625 38.8334 37.0625 38.1043 36.6459 37.7918Z" fill="#86CAFE"/>
</g>
<defs>
<clipPath id="clip0_1151_34">
<rect width="25" height="25" fill="white" transform="translate(13 18)"/>
</clipPath>
</defs>
</svg>
