<svg width="147" height="146" viewBox="0 0 147 146" fill="none" xmlns="http://www.w3.org/2000/svg">
<path fill-rule="evenodd" clip-rule="evenodd" d="M110.243 45.6706C110.243 50.7099 106.157 54.7956 101.118 54.7956C96.0789 54.7956 91.9932 50.7099 91.9932 45.6706C91.9932 40.6302 96.0789 36.5456 101.118 36.5456C106.157 36.5456 110.243 40.6302 110.243 45.6706Z" fill="#01CBBA"/>
<path fill-rule="evenodd" clip-rule="evenodd" d="M110.243 100.397C110.243 105.437 106.157 109.522 101.118 109.522C96.0789 109.522 91.9932 105.437 91.9932 100.397C91.9932 95.358 96.0789 91.2723 101.118 91.2723C106.157 91.2723 110.243 95.358 110.243 100.397Z" fill="#01CBBA"/>
<path fill-rule="evenodd" clip-rule="evenodd" d="M55.4932 45.6706C55.4932 50.7099 51.4074 54.7956 46.3682 54.7956C41.3289 54.7956 37.2432 50.7099 37.2432 45.6706C37.2432 40.6302 41.3289 36.5456 46.3682 36.5456C51.4074 36.5456 55.4932 40.6302 55.4932 45.6706Z" fill="#01CBBA"/>
<path fill-rule="evenodd" clip-rule="evenodd" d="M55.4932 100.397C55.4932 105.437 51.4074 109.522 46.3682 109.522C41.3289 109.522 37.2432 105.437 37.2432 100.397C37.2432 95.358 41.3289 91.2723 46.3682 91.2723C51.4074 91.2723 55.4932 95.358 55.4932 100.397Z" fill="#01CBBA"/>
<path fill-rule="evenodd" clip-rule="evenodd" d="M87.4307 36.5C87.4307 44.0589 81.3032 50.1875 73.7432 50.1875C66.1842 50.1875 60.0557 44.0589 60.0557 36.5C60.0557 28.9399 66.1842 22.8125 73.7432 22.8125C81.3032 22.8125 87.4307 28.9399 87.4307 36.5Z" fill="#01CBBA"/>
<path fill-rule="evenodd" clip-rule="evenodd" d="M87.4307 109.5C87.4307 117.059 81.3032 123.188 73.7432 123.188C66.1842 123.188 60.0557 117.059 60.0557 109.5C60.0557 101.94 66.1842 95.8125 73.7432 95.8125C81.3032 95.8125 87.4307 101.94 87.4307 109.5Z" fill="#01CBBA"/>
<path fill-rule="evenodd" clip-rule="evenodd" d="M80.5869 6.84375C80.5869 10.6226 77.5221 13.6875 73.7432 13.6875C69.9643 13.6875 66.8994 10.6226 66.8994 6.84375C66.8994 3.06372 69.9643 0 73.7432 0C77.5221 0 80.5869 3.06372 80.5869 6.84375Z" fill="#01CBBA"/>
<path fill-rule="evenodd" clip-rule="evenodd" d="M80.5869 139.156C80.5869 142.935 77.5221 146 73.7432 146C69.9643 146 66.8994 142.935 66.8994 139.156C66.8994 135.376 69.9643 132.312 73.7432 132.312C77.5221 132.312 80.5869 135.376 80.5869 139.156Z" fill="#01CBBA"/>
<path fill-rule="evenodd" clip-rule="evenodd" d="M80.5869 6.84375C80.5869 10.6226 77.5221 13.6875 73.7432 13.6875C69.9643 13.6875 66.8994 10.6226 66.8994 6.84375C66.8994 3.06372 69.9643 0 73.7432 0C77.5221 0 80.5869 3.06372 80.5869 6.84375Z" fill="#01CBBA"/>
<path fill-rule="evenodd" clip-rule="evenodd" d="M80.5869 139.156C80.5869 142.935 77.5221 146 73.7432 146C69.9643 146 66.8994 142.935 66.8994 139.156C66.8994 135.376 69.9643 132.312 73.7432 132.312C77.5221 132.312 80.5869 135.376 80.5869 139.156Z" fill="#01CBBA"/>
<path fill-rule="evenodd" clip-rule="evenodd" d="M50.9307 73C50.9307 80.5589 44.8021 86.6875 37.2432 86.6875C29.6842 86.6875 23.5557 80.5589 23.5557 73C23.5557 65.4399 29.6842 59.3125 37.2432 59.3125C44.8021 59.3125 50.9307 65.4399 50.9307 73Z" fill="#01CBBA"/>
<path fill-rule="evenodd" clip-rule="evenodd" d="M123.931 73C123.931 80.5589 117.802 86.6875 110.243 86.6875C102.684 86.6875 96.5557 80.5589 96.5557 73C96.5557 65.4399 102.684 59.3125 110.243 59.3125C117.802 59.3125 123.931 65.4399 123.931 73Z" fill="#01CBBA"/>
<path fill-rule="evenodd" clip-rule="evenodd" d="M7.58691 66.1562C11.3658 66.1562 14.4307 69.22 14.4307 73C14.4307 76.7789 11.3658 79.8438 7.58691 79.8438C3.80802 79.8438 0.743164 76.7789 0.743164 73C0.743164 69.22 3.80802 66.1562 7.58691 66.1562Z" fill="#01CBBA"/>
<path fill-rule="evenodd" clip-rule="evenodd" d="M139.899 66.1562C143.678 66.1562 146.743 69.22 146.743 73C146.743 76.7789 143.678 79.8438 139.899 79.8438C136.121 79.8438 133.056 76.7789 133.056 73C133.056 69.22 136.121 66.1562 139.899 66.1562Z" fill="#01CBBA"/>
<path fill-rule="evenodd" clip-rule="evenodd" d="M87.4307 73C87.4307 80.5589 81.3032 86.6875 73.7432 86.6875C66.1842 86.6875 60.0557 80.5589 60.0557 73C60.0557 65.4399 66.1842 59.3125 73.7432 59.3125C81.3032 59.3125 87.4307 65.4399 87.4307 73Z" fill="#01CBBA"/>
<path fill-rule="evenodd" clip-rule="evenodd" d="M7.58691 66.1562C11.3658 66.1562 14.4307 69.22 14.4307 73C14.4307 76.7789 11.3658 79.8438 7.58691 79.8438C3.80802 79.8438 0.743164 76.7789 0.743164 73C0.743164 69.22 3.80802 66.1562 7.58691 66.1562Z" fill="#01CBBA"/>
<path fill-rule="evenodd" clip-rule="evenodd" d="M139.899 66.1562C143.678 66.1562 146.743 69.22 146.743 73C146.743 76.7789 143.678 79.8438 139.899 79.8438C136.121 79.8438 133.056 76.7789 133.056 73C133.056 69.22 136.121 66.1562 139.899 66.1562Z" fill="#01CBBA"/>
<path fill-rule="evenodd" clip-rule="evenodd" d="M126.512 29.9326C123.839 32.6062 119.506 32.6062 116.833 29.9326C114.16 27.2601 114.16 22.9268 116.833 20.2544C119.506 17.5819 123.839 17.5819 126.512 20.2544C129.184 22.9268 129.184 27.2601 126.512 29.9326Z" fill="#01CBBA"/>
<path fill-rule="evenodd" clip-rule="evenodd" d="M30.7114 125.768C28.0389 128.441 23.7057 128.441 21.0332 125.768C18.3607 123.095 18.3607 118.762 21.0332 116.09C23.7057 113.417 28.0389 113.417 30.7114 116.09C33.3839 118.762 33.3839 123.095 30.7114 125.768Z" fill="#01CBBA"/>
<path fill-rule="evenodd" clip-rule="evenodd" d="M30.7114 20.2541C33.3839 22.9277 33.3839 27.2609 30.7114 29.9323C28.0389 32.6059 23.7057 32.6059 21.0332 29.9323C18.3607 27.2609 18.3607 22.9277 21.0332 20.2541C23.7057 17.5816 28.0389 17.5816 30.7114 20.2541Z" fill="#01CBBA"/>
<path fill-rule="evenodd" clip-rule="evenodd" d="M126.489 116.089C129.162 118.762 129.162 123.095 126.489 125.768C123.817 128.44 119.483 128.44 116.811 125.768C114.137 123.095 114.137 118.762 116.811 116.089C119.483 113.416 123.817 113.416 126.489 116.089Z" fill="#01CBBA"/>
</svg>
