<svg width="1800" height="333" viewBox="0 0 1800 333" fill="none" xmlns="http://www.w3.org/2000/svg">
<path fill-rule="evenodd" clip-rule="evenodd" d="M134.12 55.5V0H143.7V55.5H134.12ZM488.58 104.062V13.875H498.16V104.062H488.58ZM459.84 37H450.26V231.25H440.68V252.062H431.1V333H440.68L450.26 333H459.84L469.42 333H479H488.58V212.75H479L479 71.6875H469.42V185H459.84L459.84 37ZM95.8 43.9375V210.438H86.22V157.25H76.64L76.64 111H67.06L67.06 233.562H57.48V333H67.06L76.64 333L86.22 333H95.8H105.38V43.9375H95.8ZM38.32 71.6875L38.32 270.689H28.74V333H38.32H47.9H57.48V90.1875H47.9V71.6875H38.32ZM28.74 115.625H19.16L19.16 164.188H9.58002V333H19.16H28.74V115.625ZM0 224.312V333H9.58001V224.312H0ZM105.38 129.5H114.96L114.96 189.625H124.54V333H114.96H105.38V129.5ZM124.54 261.312H134.12V148H143.7V333H134.12H124.54V261.312ZM143.7 111H153.28V252.062H162.86V333H153.28H143.7V111ZM162.86 124.875H172.44V55.5H182.02V131.812H172.44V333H162.86V124.875ZM182.02 233.562H172.44V263.625H182.02V296H172.44V333H182.02H191.6H201.18L210.76 333L220.34 333H229.92H239.5V259H229.92L229.92 201.188H220.34L220.34 108.687H210.76V69.375H201.18L201.18 138.75H191.6V178.062H182.02L182.02 233.562ZM239.5 205.812H249.08V282.125H258.66V150.312H268.24L268.24 64.75H277.82V157.25H268.24L268.24 173.438H277.82V196.562H287.4V245.125H296.98V217.375H306.56V111H316.14L316.14 127.188H325.72V99.4375H335.3V265.938H344.88L344.88 224.312H354.46V69.375H364.04L364.04 217.375H373.62V333H364.04H354.46H344.88H335.3H325.72L316.14 333L306.56 333H296.98H287.4H277.82H268.24H258.66H249.08H239.5V205.812ZM383.2 293.688H373.62V333H383.2H392.78H402.36H411.94L421.52 333L431.1 333V203.5H421.52V53.1875H411.94V175.75H402.36V152.625H392.78V138.75H383.2V293.688ZM498.16 122.563H488.58V333H498.16H507.74H517.32H526.9H536.48H546.06H555.64L565.22 333L574.8 333H584.38H593.96V178.062H584.38L584.38 80.9375H574.8V228.938H565.22L565.22 261.312H555.64V217.375H546.06V164.188H536.48V134.125H526.9V113.312H517.32V152.625H507.74V272.875H498.16V122.563ZM593.96 279.812H603.54L603.54 242.812H613.12V198.875H622.7V129.5H632.28V219.688H641.86V161.875H651.44L651.44 263.625H661.02V48.5625H670.6V111H680.18V60.125H689.76V191.938H699.34V78.625H708.92V268.377H718.5V106.375H728.08L728.08 178.062H737.66V136.438H747.24V333H737.66H728.08H718.5H708.92H699.34H689.76L680.18 333L670.6 333L661.02 333L651.44 333H641.86H632.28H622.7H613.12H603.54H593.96V279.812ZM632.28 272.875H641.86L641.86 309.875H632.28V272.875ZM747.24 117.938H756.82V228.938H766.4V191.938H775.98V254.375H785.56V175.75H775.98V92.5H785.56V168.813H795.14L795.14 64.75H804.72V122.563H814.3V210.438H823.88L823.88 85.5625H833.46V284.564H843.04V196.562H852.62V245.125H862.2V205.813H871.78V127.188H881.36L881.36 154.938H890.94V143.375H900.52V219.688H910.1V182.688H919.68V242.812H929.26L929.26 201.188H938.84V152.625H948.42L948.42 259H958V224.312H967.58V164.188H977.16L977.16 115.625H986.74V270.689H996.32V71.6875H1005.9V90.1875H1015.48V233.562H1025.06V111H1034.64V157.25H1044.22V210.438H1053.8V43.9375H1063.38V129.5H1072.96V189.625H1082.54V261.312H1092.12V148H1101.7L1101.7 111H1111.28V252.062H1120.86V124.875H1130.44V55.5H1140.02V131.812H1130.44V233.562H1140.02V178.062H1149.6V138.75H1159.18V69.375H1168.76V108.687H1178.34V201.188H1187.92L1187.92 259H1197.5V205.812H1207.08V282.125H1216.66V150.312H1226.24V64.75H1235.82V157.25H1226.24V173.438H1235.82V196.562H1245.4V245.125H1254.98V217.375H1264.56V111H1274.14V127.188H1283.72V99.4375H1293.3V265.938H1302.88L1302.88 224.312H1312.46V69.375H1322.04V217.375H1331.62L1331.62 293.688H1341.2V138.75H1350.78V152.625H1360.36V175.75H1369.94V53.1875H1379.52V203.5H1389.1V252.062H1398.68V231.25H1408.26V37H1417.84V185H1427.42V71.6875H1437V212.75H1446.58V122.563H1456.16V272.875H1465.74V152.625H1475.32V113.312H1484.9V134.125H1494.48V164.188H1504.06V217.375H1513.64V261.312H1523.22V228.938H1532.8V80.9375H1542.38L1542.38 178.062H1551.96L1551.96 279.812H1561.54L1561.54 242.812H1571.12V198.875H1580.7V129.5H1590.28V219.688H1599.86V161.875H1609.44V263.625H1619.02V48.5625H1628.6V111H1638.18V60.125H1647.76V191.938H1657.34V78.625H1666.92V268.377H1676.5V106.375H1686.08L1686.08 178.062H1695.66V136.438H1705.24L1705.24 117.938H1714.82V228.938H1724.4V191.938H1733.98V254.375H1743.56V175.75H1733.98V92.5H1743.56V168.813H1753.14L1753.14 64.75H1762.72V122.563H1772.3V210.438H1781.88L1781.88 85.5625H1791.46V284.564H1801.04V196.562H1810.62V245.125H1820.2V205.813H1829.78V127.188H1839.36L1839.36 154.938H1848.94V143.375H1858.52V219.688H1868.1V182.688H1877.68V242.812H1887.26L1887.26 201.188H1896.84V152.625H1906.42L1906.42 259H1916V333H1906.42H1896.84L1887.26 333L1877.68 333H1868.1H1858.52H1848.94H1839.36H1829.78L1820.2 333L1810.62 333H1801.04H1791.46H1781.88H1772.3H1762.72H1753.14L1743.56 333L1733.98 333H1724.4H1714.82H1705.24H1695.66H1686.08H1676.5H1666.92H1657.34H1647.76L1638.18 333L1628.6 333L1619.02 333L1609.44 333H1599.86H1590.28H1580.7H1571.12H1561.54H1551.96H1542.38H1532.8L1523.22 333L1513.64 333H1504.06H1494.48H1484.9H1475.32H1465.74H1456.16H1446.58H1437H1427.42L1417.84 333L1408.26 333H1398.68H1389.1L1379.52 333L1369.94 333H1360.36H1350.78H1341.2H1331.62H1322.04H1312.46H1302.88H1293.3H1283.72L1274.14 333L1264.56 333H1254.98H1245.4H1235.82H1226.24H1216.66H1207.08H1197.5H1187.92H1178.34L1168.76 333L1159.18 333H1149.6H1140.02H1130.44H1120.86H1111.28H1101.7H1092.12H1082.54H1072.96H1063.38H1053.8H1044.22L1034.64 333L1025.06 333H1015.48H1005.9H996.32H986.74H977.16H967.58H958H948.42H938.84L929.26 333L919.68 333H910.1H900.52H890.94H881.36H871.78L862.2 333L852.62 333H843.04H833.46H823.88H814.3H804.72H795.14L785.56 333L775.98 333H766.4H756.82H747.24V117.938ZM1130.44 296H1140.02V263.625H1130.44V296ZM862.2 298.312H871.78V270.562H862.2V298.312ZM910.1 129.5V62.4375H919.68V129.5H910.1ZM852.62 90.1875V157.25H862.2V90.1875H852.62ZM229.92 25.4375V104.062H239.5V25.4375H229.92ZM287.4 30.0625V71.6876H296.98V30.0625H287.4ZM9.58006 106.375V53.1875H19.16V106.375H9.58006ZM632.28 30.0625V55.5H641.86V30.0625H632.28ZM603.54 99.4375H613.12V182.688H603.54V99.4375ZM843.04 74V39.3125H852.62V74H843.04ZM1829.78 270.562H1820.2V298.312H1829.78V270.562ZM1599.86 309.875H1590.28V272.875H1599.86L1599.86 309.875ZM1868.1 129.5V62.4375H1877.68V129.5H1868.1ZM1810.62 90.1875V157.25H1820.2V90.1875H1810.62ZM1446.58 104.062V13.875H1456.16V104.062H1446.58ZM1187.92 25.4375V104.062H1197.5V25.4375H1187.92ZM1245.4 30.0625V71.6876H1254.98V30.0625H1245.4ZM1092.12 55.5V0H1101.7V55.5H1092.12ZM967.58 106.375V53.1875H977.16V106.375H967.58ZM1590.28 30.0625V55.5H1599.86V30.0625H1590.28ZM1561.54 99.4375H1571.12V182.688H1561.54V99.4375ZM1801.04 74V39.3125H1810.62V74H1801.04Z" fill="#FEEAEF"/>
</svg>
