<svg width="148" height="170" viewBox="0 0 148 170" fill="none" xmlns="http://www.w3.org/2000/svg">
<path d="M117.785 93.5005L103.062 102.008L88.3385 110.502L73.6155 119.01V136.011L88.3385 127.503L103.062 119.01L117.785 110.502L132.508 102.008L147.231 93.5005V76.499L132.508 85.007L117.785 93.5005Z" fill="#F4CB00"/>
<path d="M29.446 42.4964L44.1691 51.0043L58.8921 42.4964L73.6152 34.0029V17.0015L58.8921 25.495L44.1691 34.0029L29.446 42.4964Z" fill="#F4CB00"/>
<path d="M147.231 59.4978V42.5107L132.508 51.0043L117.785 59.4978V59.5122L103.062 68.0057L88.3385 76.4992L73.6155 85.0071V102.009L88.3385 93.5006L103.062 85.0071L117.785 76.4992L132.508 68.0057L147.231 59.4978Z" fill="#F4CB00"/>
<path fill-rule="evenodd" clip-rule="evenodd" d="M58.8921 59.4984L73.6151 51.0049V68.0063L58.8921 59.4984ZM73.6156 51.0049L88.3386 59.4984L73.6156 68.0063V51.0049Z" fill="#F4CB00"/>
<path d="M73.6155 17.0015V34.0029L88.3385 42.4964V25.495L73.6155 17.0015Z" fill="#F4CB00"/>
<path d="M88.3384 25.4951V42.4966L103.061 51.0045V34.003L88.3384 25.4951Z" fill="#F4CB00"/>
<path d="M103.062 51.0044L117.785 42.5109V42.4964L103.062 34.0029V51.0044Z" fill="#F4CB00"/>
<path d="M73.6153 153.013V170L132.507 136.011V135.997L147.231 127.503V110.502L73.6153 153.013Z" fill="#F4CB00"/>
<path d="M14.723 119.01L0 110.502V127.503L14.723 135.997V119.01Z" fill="#F4CB00"/>
<path d="M29.446 127.503L14.723 119.01V135.997L29.446 144.505V127.503Z" fill="#F4CB00"/>
<path d="M44.1692 135.997L29.446 127.503V144.505L44.1692 152.998V135.997Z" fill="#F4CB00"/>
<path d="M58.8922 144.505L44.1692 135.997V152.998L44.1691 153.013L58.8922 161.507V144.505Z" fill="#F4CB00"/>
<path d="M73.6153 153.013L58.8922 144.505V161.507L73.6153 170V153.013Z" fill="#F4CB00"/>
<path d="M14.723 102.008L29.4461 110.502L14.723 119.01L29.4461 110.502L44.1691 119.01L29.4461 127.503L44.1691 119.01L58.8922 127.503L44.1691 135.997L58.8922 127.503L73.6152 135.997L58.8922 144.505L73.6152 136.011V119.01L58.8922 110.502V127.503V110.502L44.1691 102.008V119.01V102.008L29.4461 93.5005V110.502V93.5005L14.723 85.007V102.008V85.007L0 76.499V93.5005L14.723 101.994V102.008Z" fill="#F4CB00"/>
<path d="M14.723 68.0064L29.4461 76.4999L14.723 85.0079L29.4461 76.4999L44.1691 85.0079L29.4461 93.5014L44.1691 85.0079L58.8922 93.5014L44.1691 102.009L58.8922 93.5014L73.6152 102.009L58.8922 110.503L73.6152 102.009V85.0079L58.8922 76.4999V93.5014V76.4999L44.1691 68.0064V85.0079V68.0064L29.4461 59.4985V76.4999V59.4985L14.723 51.005V68.0064V51.005L0 42.4971V59.4985L14.723 68.0064Z" fill="#F4CB00"/>
<path d="M73.6152 17.0014L88.3383 8.49351L73.6152 0L0 42.4964L14.723 51.0043L73.6152 17.0014Z" fill="#FFF980"/>
<path d="M88.3383 25.4951L103.061 17.0016L88.3383 8.49351L73.6152 17.0014L88.3383 25.4951Z" fill="#FFF980"/>
<path d="M103.061 34.0029L117.784 25.495L103.061 17.0016L88.3383 25.4951L103.061 34.0029Z" fill="#FFF980"/>
<path d="M117.784 42.4966L132.507 34.0031L117.784 25.495L103.061 34.0029L117.784 42.4966Z" fill="#FFF980"/>
<path d="M117.784 42.5111L103.061 51.0041L88.3383 59.5842L73.6152 68.0777L58.8921 59.5842L44.1691 51.0762L29.4461 42.5828L14.723 51.0762L29.4461 59.5842L44.1691 68.0777L58.8921 76.5856L73.6152 85.0791L147.23 42.5828L132.507 34.0748L117.784 42.5828L117.784 42.5111Z" fill="#FFF980"/>
<path d="M29.4461 76.4994L14.723 68.0059L0 76.4994L14.723 85.0073L29.4461 76.4994Z" fill="#FFF980"/>
<path d="M29.4461 76.4994L14.723 85.0073L29.446 93.5003L44.1691 85.0068L29.4461 76.4994Z" fill="#FFF980"/>
<path d="M44.1691 85.0068L29.446 93.5003L44.1692 102.009L58.8922 93.5009L44.1691 85.0068Z" fill="#FFF980"/>
<path d="M58.8922 93.5009L44.1692 102.009L58.8922 110.502L73.6152 102.008L58.8922 93.5009Z" fill="#FFF980"/>
<path d="M73.6152 102.008L58.8922 110.502L73.6152 119.01L147.23 76.4994L132.507 68.0059L73.6152 102.008Z" fill="#FFF980"/>
<path d="M29.4461 110.502L14.723 102.009L0 110.502L14.723 119.01L29.4461 110.502Z" fill="#FFF980"/>
<path d="M29.4461 110.502L14.723 119.01L29.446 127.503L44.1691 119.01L29.4461 110.502Z" fill="#FFF980"/>
<path d="M44.1691 119.01L29.446 127.503L44.1692 135.997L58.8922 127.503L44.1691 119.01Z" fill="#FFF980"/>
<path d="M58.8922 127.503L44.1692 135.997L58.8922 144.505L73.6152 135.997L58.8922 127.503Z" fill="#FFF980"/>
<path d="M58.8922 144.505L73.6152 153.013L147.23 110.502L132.507 102.009L58.8922 144.505Z" fill="#FFF980"/>
<path d="M58.892 42.4964L44.1689 51.0044L58.892 59.4979L73.615 51.0044L88.3381 42.4964L73.615 34.0029L58.892 42.4964Z" fill="#FFFCCC"/>
<path d="M88.3385 59.4985L103.062 51.005L88.3385 42.4971L73.6155 51.005L88.3385 59.4985Z" fill="#FFFCCC"/>
</svg>
