<svg width="1800" height="364" viewBox="0 0 1800 364" fill="none" xmlns="http://www.w3.org/2000/svg">
<path d="M-116 192.111L-45.3 192.111L-45.3 182L-35.2 182L-35.2 171.889L-75.6 171.889L-75.6 182L-116 182L-116 161.778L-95.8 161.778L-95.8 151.667L-55.4 151.667L-55.4 161.778L-25.1 161.778L-25.1 151.667L106.2 151.667L106.2 161.778L86 161.778L86 171.889L146.6 171.889L146.6 161.778L126.4 161.778L126.4 151.667L166.8 151.667L166.8 161.778L207.2 161.778L207.2 151.667L257.7 151.667L257.7 161.778L267.8 161.778L267.8 171.889L308.2 171.889L308.2 161.778L288 161.778L288 151.667L358.7 151.667L358.7 141.556L389 141.556L389 151.667L368.8 151.667L368.8 161.778L348.6 161.778L348.6 171.889L378.9 171.889L378.9 161.778L389 161.778L389 182L308.2 182L308.2 192.111L389 192.111L389 364L-116 364L-116 192.111ZM-85.7 242.667L-85.7 252.778L-55.4 252.778L-55.4 242.667L-85.7 242.667ZM-35.2 222.444L-35.2 232.556L-4.9 232.556L-4.9 222.444L-35.2 222.444ZM-65.5 202.222L-65.5 212.333L35.5 212.333L35.5 202.222L-65.5 202.222ZM65.8 171.889L35.5 171.889L35.5 161.778L-4.89999 161.778L-4.89999 171.889L25.4 171.889L25.4 182L65.8 182L65.8 171.889ZM247.6 202.222L247.6 192.111L217.3 192.111L217.3 182L136.5 182L136.5 192.111L207.2 192.111L207.2 202.222L247.6 202.222ZM166.8 202.222L75.9 202.222L75.9 212.333L166.8 212.333L166.8 202.222ZM267.8 212.333L237.5 212.333L237.5 222.444L267.8 222.444L267.8 212.333ZM358.7 232.556L358.7 222.444L308.2 222.444L308.2 232.556L358.7 232.556ZM227.4 252.778L227.4 242.667L176.9 242.667L176.9 252.778L227.4 252.778ZM75.9 252.778L25.4 252.778L25.4 262.889L75.9 262.889L75.9 252.778ZM166.8 262.889L136.5 262.889L136.5 273L166.8 273L166.8 262.889ZM328.4 283.111L328.4 273L288 273L288 283.111L328.4 283.111Z" fill="#FFF8E6"/>
<path d="M267.8 10.1111L267.8 1.67764e-05L308.2 1.85424e-05L308.2 10.1111L267.8 10.1111Z" fill="#FFF8E6"/>
<path d="M-45.3 20.2222L-45.3 10.1111L5.20001 10.1111L5.20001 20.2222L-45.3 20.2222Z" fill="#FFF8E6"/>
<path d="M86 20.2222L86 10.1111L136.5 10.1111L136.5 20.2222L86 20.2222Z" fill="#FFF8E6"/>
<path d="M176.9 30.3333L176.9 20.2222L237.5 20.2222L237.5 30.3333L176.9 30.3333Z" fill="#FFF8E6"/>
<path d="M25.4 30.3333L25.4 20.2222L55.7 20.2222L55.7 30.3333L25.4 30.3333Z" fill="#FFF8E6"/>
<path d="M-95.8 30.3333L-95.8 20.2222L-55.4 20.2222L-55.4 30.3333L-95.8 30.3333Z" fill="#FFF8E6"/>
<path d="M267.8 40.4445L267.8 30.3333L328.4 30.3333L328.4 40.4445L267.8 40.4445Z" fill="#FFF8E6"/>
<path d="M55.7 40.4445L55.7 30.3333L96.1 30.3333L96.1 40.4445L55.7 40.4445Z" fill="#FFF8E6"/>
<path d="M116.3 50.5556L116.3 40.4445L176.9 40.4445L176.9 50.5556L116.3 50.5556Z" fill="#FFF8E6"/>
<path d="M348.6 50.5556L348.6 40.4445L389 40.4445L389 50.5556L348.6 50.5556Z" fill="#FFF8E6"/>
<path d="M-116 50.5555L-116 40.4444L-95.8 40.4444L-95.8 50.5556L-116 50.5555Z" fill="#FFF8E6"/>
<path d="M298.1 60.6667L298.1 50.5556L338.5 50.5556L338.5 60.6667L298.1 60.6667Z" fill="#FFF8E6"/>
<path d="M-85.7 60.6667L-85.7 50.5556L-45.3 50.5556L-45.3 60.6667L-85.7 60.6667Z" fill="#FFF8E6"/>
<path d="M136.5 70.7778L136.5 60.6667L197.1 60.6667L197.1 70.7778L136.5 70.7778Z" fill="#FFF8E6"/>
<path d="M5.20001 60.5403L5.20001 50.5556L86 50.5556L86 60.6667L15.3 60.6667L15.3 70.6514L-35.2 70.6514L-35.2 60.5403L5.20001 60.5403Z" fill="#FFF8E6"/>
<path d="M-116 80.7625L-116 70.6514L-55.4 70.6514L-55.4 80.7625L-116 80.7625Z" fill="#FFF8E6"/>
<path d="M75.9 80.7625L75.9 70.6514L106.2 70.6514L106.2 80.7625L75.9 80.7625Z" fill="#FFF8E6"/>
<path d="M298.1 80.7625L247.6 80.7625L247.6 70.7778L217.3 70.7778L217.3 60.6667L267.8 60.6667L267.8 70.6514L298.1 70.6514L298.1 80.7625Z" fill="#FFF8E6"/>
<path d="M368.8 80.7625L368.8 70.7778L389 70.7778L389 90.8736L328.4 90.8736L328.4 80.7625L368.8 80.7625Z" fill="#FFF8E6"/>
<path d="M-45.3 91L-45.3 101.111L-116 101.111L-116 91L-75.6 91L-75.6 80.8889L-15 80.8889L-15 91L-45.3 91Z" fill="#FFF8E6"/>
<path d="M116.3 111.222L116.3 101.111L146.6 101.111L146.6 111.222L116.3 111.222Z" fill="#FFF8E6"/>
<path d="M5.20001 111.222L5.20001 101.111L35.5 101.111L35.5 91L86 91L86 101.111L55.7 101.111L55.7 111.222L106.2 111.222L106.2 121.333L146.6 121.333L146.6 131.444L86 131.444L86 121.333L25.4 121.333L25.4 111.222L5.20001 111.222Z" fill="#FFF8E6"/>
<path d="M-45.3 111.222L-45.3 101.111L-4.89999 101.111L-4.89999 111.222L-45.3 111.222Z" fill="#FFF8E6"/>
<path d="M-85.7 131.444L-65.5 131.444L-65.5 121.333L25.4 121.333L25.4 131.444L75.9 131.444L75.9 141.556L5.20001 141.556L5.20001 131.444L-45.3 131.444L-45.3 141.429L-25.1 141.429L-25.1 151.54L-116 151.54L-116 141.429L-105.9 141.429L-105.9 131.444L-116 131.444L-116 111.222L-85.7 111.222L-85.7 131.444Z" fill="#FFF8E6"/>
<path d="M389 192.111L459.84 192.111L459.84 182L469.96 182L469.96 171.889L429.48 171.889L429.48 182L389 182L389 161.778L409.24 161.778L409.24 151.667L449.72 151.667L449.72 161.778L480.08 161.778L480.08 151.667L611.64 151.667L611.64 161.778L591.4 161.778L591.4 171.889L652.12 171.889L652.12 161.778L631.88 161.778L631.88 151.667L672.36 151.667L672.36 161.778L712.84 161.778L712.84 151.667L763.44 151.667L763.44 161.778L773.56 161.778L773.56 171.889L814.04 171.889L814.04 161.778L793.8 161.778L793.8 151.667L864.64 151.667L864.64 141.556L895 141.556L895 151.667L874.76 151.667L874.76 161.778L854.52 161.778L854.52 171.889L884.88 171.889L884.88 161.778L895 161.778L895 182L814.04 182L814.04 192.111L895 192.111L895 364L389 364L389 192.111ZM419.36 242.667L419.36 252.778L449.72 252.778L449.72 242.667L419.36 242.667ZM469.96 222.444L469.96 232.556L500.32 232.556L500.32 222.444L469.96 222.444ZM439.6 202.222L439.6 212.333L540.8 212.333L540.8 202.222L439.6 202.222ZM571.16 171.889L540.8 171.889L540.8 161.778L500.32 161.778L500.32 171.889L530.68 171.889L530.68 182L571.16 182L571.16 171.889ZM753.32 202.222L753.32 192.111L722.96 192.111L722.96 182L642 182L642 192.111L712.84 192.111L712.84 202.222L753.32 202.222ZM672.36 202.222L581.28 202.222L581.28 212.333L672.36 212.333L672.36 202.222ZM773.56 212.333L743.2 212.333L743.2 222.444L773.56 222.444L773.56 212.333ZM864.64 232.556L864.64 222.444L814.04 222.444L814.04 232.556L864.64 232.556ZM733.08 252.778L733.08 242.667L682.48 242.667L682.48 252.778L733.08 252.778ZM581.28 252.778L530.68 252.778L530.68 262.889L581.28 262.889L581.28 252.778ZM672.36 262.889L642 262.889L642 273L672.36 273L672.36 262.889ZM834.28 283.111L834.28 273L793.8 273L793.8 283.111L834.28 283.111Z" fill="#FFF8E6"/>
<path d="M773.56 10.1111L773.56 1.68097e-05L814.04 1.85791e-05L814.04 10.1111L773.56 10.1111Z" fill="#FFF8E6"/>
<path d="M459.84 20.2222L459.84 10.1111L510.44 10.1111L510.44 20.2222L459.84 20.2222Z" fill="#FFF8E6"/>
<path d="M591.4 20.2222L591.4 10.1111L642 10.1111L642 20.2222L591.4 20.2222Z" fill="#FFF8E6"/>
<path d="M682.48 30.3333L682.48 20.2222L743.2 20.2222L743.2 30.3333L682.48 30.3333Z" fill="#FFF8E6"/>
<path d="M530.68 30.3333L530.68 20.2222L561.04 20.2222L561.04 30.3333L530.68 30.3333Z" fill="#FFF8E6"/>
<path d="M409.24 30.3333L409.24 20.2222L449.72 20.2222L449.72 30.3333L409.24 30.3333Z" fill="#FFF8E6"/>
<path d="M773.56 40.4445L773.56 30.3333L834.28 30.3333L834.28 40.4445L773.56 40.4445Z" fill="#FFF8E6"/>
<path d="M561.04 40.4445L561.04 30.3333L601.52 30.3333L601.52 40.4445L561.04 40.4445Z" fill="#FFF8E6"/>
<path d="M621.76 50.5556L621.76 40.4445L682.48 40.4445L682.48 50.5556L621.76 50.5556Z" fill="#FFF8E6"/>
<path d="M854.52 50.5556L854.52 40.4445L895 40.4445L895 50.5556L854.52 50.5556Z" fill="#FFF8E6"/>
<path d="M389 50.5555L389 40.4444L409.24 40.4444L409.24 50.5556L389 50.5555Z" fill="#FFF8E6"/>
<path d="M803.92 60.6667L803.92 50.5556L844.4 50.5556L844.4 60.6667L803.92 60.6667Z" fill="#FFF8E6"/>
<path d="M419.36 60.6667L419.36 50.5556L459.84 50.5556L459.84 60.6667L419.36 60.6667Z" fill="#FFF8E6"/>
<path d="M642 70.7778L642 60.6667L702.72 60.6667L702.72 70.7778L642 70.7778Z" fill="#FFF8E6"/>
<path d="M510.44 60.5403L510.44 50.5556L591.4 50.5556L591.4 60.6667L520.56 60.6667L520.56 70.6514L469.96 70.6514L469.96 60.5403L510.44 60.5403Z" fill="#FFF8E6"/>
<path d="M389 80.7625L389 70.6514L449.72 70.6514L449.72 80.7625L389 80.7625Z" fill="#FFF8E6"/>
<path d="M581.28 80.7625L581.28 70.6514L611.64 70.6514L611.64 80.7625L581.28 80.7625Z" fill="#FFF8E6"/>
<path d="M803.92 80.7625L753.32 80.7625L753.32 70.7778L722.96 70.7778L722.96 60.6667L773.56 60.6667L773.56 70.6514L803.92 70.6514L803.92 80.7625Z" fill="#FFF8E6"/>
<path d="M874.76 80.7625L874.76 70.7778L895 70.7778L895 90.8736L834.28 90.8736L834.28 80.7625L874.76 80.7625Z" fill="#FFF8E6"/>
<path d="M459.84 91L459.84 101.111L389 101.111L389 91L429.48 91L429.48 80.8889L490.2 80.8889L490.2 91L459.84 91Z" fill="#FFF8E6"/>
<path d="M621.76 111.222L621.76 101.111L652.12 101.111L652.12 111.222L621.76 111.222Z" fill="#FFF8E6"/>
<path d="M510.44 111.222L510.44 101.111L540.8 101.111L540.8 91L591.4 91L591.4 101.111L561.04 101.111L561.04 111.222L611.64 111.222L611.64 121.333L652.12 121.333L652.12 131.444L591.4 131.444L591.4 121.333L530.68 121.333L530.68 111.222L510.44 111.222Z" fill="#FFF8E6"/>
<path d="M459.84 111.222L459.84 101.111L500.32 101.111L500.32 111.222L459.84 111.222Z" fill="#FFF8E6"/>
<path d="M419.36 131.444L439.6 131.444L439.6 121.333L530.68 121.333L530.68 131.444L581.28 131.444L581.28 141.556L510.44 141.556L510.44 131.444L459.84 131.444L459.84 141.429L480.08 141.429L480.08 151.54L389 151.54L389 141.429L399.12 141.429L399.12 131.444L389 131.444L389 111.222L419.36 111.222L419.36 131.444Z" fill="#FFF8E6"/>
<path d="M895 192.111L965.84 192.111L965.84 182L975.96 182L975.96 171.889L935.48 171.889L935.48 182L895 182L895 161.778L915.24 161.778L915.24 151.667L955.72 151.667L955.72 161.778L986.08 161.778L986.08 151.667L1117.64 151.667L1117.64 161.778L1097.4 161.778L1097.4 171.889L1158.12 171.889L1158.12 161.778L1137.88 161.778L1137.88 151.667L1178.36 151.667L1178.36 161.778L1218.84 161.778L1218.84 151.667L1269.44 151.667L1269.44 161.778L1279.56 161.778L1279.56 171.889L1320.04 171.889L1320.04 161.778L1299.8 161.778L1299.8 151.667L1370.64 151.667L1370.64 141.556L1401 141.556L1401 151.667L1380.76 151.667L1380.76 161.778L1360.52 161.778L1360.52 171.889L1390.88 171.889L1390.88 161.778L1401 161.778L1401 182L1320.04 182L1320.04 192.111L1401 192.111L1401 364L895 364L895 192.111ZM925.36 242.667L925.36 252.778L955.72 252.778L955.72 242.667L925.36 242.667ZM975.96 222.444L975.96 232.556L1006.32 232.556L1006.32 222.444L975.96 222.444ZM945.6 202.222L945.6 212.333L1046.8 212.333L1046.8 202.222L945.6 202.222ZM1077.16 171.889L1046.8 171.889L1046.8 161.778L1006.32 161.778L1006.32 171.889L1036.68 171.889L1036.68 182L1077.16 182L1077.16 171.889ZM1259.32 202.222L1259.32 192.111L1228.96 192.111L1228.96 182L1148 182L1148 192.111L1218.84 192.111L1218.84 202.222L1259.32 202.222ZM1178.36 202.222L1087.28 202.222L1087.28 212.333L1178.36 212.333L1178.36 202.222ZM1279.56 212.333L1249.2 212.333L1249.2 222.444L1279.56 222.444L1279.56 212.333ZM1370.64 232.556L1370.64 222.444L1320.04 222.444L1320.04 232.556L1370.64 232.556ZM1239.08 252.778L1239.08 242.667L1188.48 242.667L1188.48 252.778L1239.08 252.778ZM1087.28 252.778L1036.68 252.778L1036.68 262.889L1087.28 262.889L1087.28 252.778ZM1178.36 262.889L1148 262.889L1148 273L1178.36 273L1178.36 262.889ZM1340.28 283.111L1340.28 273L1299.8 273L1299.8 283.111L1340.28 283.111Z" fill="#FFF8E6"/>
<path d="M1279.56 10.1111L1279.56 1.68097e-05L1320.04 1.85791e-05L1320.04 10.1111L1279.56 10.1111Z" fill="#FFF8E6"/>
<path d="M965.84 20.2222L965.84 10.1111L1016.44 10.1111L1016.44 20.2222L965.84 20.2222Z" fill="#FFF8E6"/>
<path d="M1097.4 20.2222L1097.4 10.1111L1148 10.1111L1148 20.2222L1097.4 20.2222Z" fill="#FFF8E6"/>
<path d="M1188.48 30.3333L1188.48 20.2222L1249.2 20.2222L1249.2 30.3333L1188.48 30.3333Z" fill="#FFF8E6"/>
<path d="M1036.68 30.3333L1036.68 20.2222L1067.04 20.2222L1067.04 30.3333L1036.68 30.3333Z" fill="#FFF8E6"/>
<path d="M915.24 30.3333L915.24 20.2222L955.72 20.2222L955.72 30.3333L915.24 30.3333Z" fill="#FFF8E6"/>
<path d="M1279.56 40.4445L1279.56 30.3333L1340.28 30.3333L1340.28 40.4445L1279.56 40.4445Z" fill="#FFF8E6"/>
<path d="M1067.04 40.4445L1067.04 30.3333L1107.52 30.3333L1107.52 40.4445L1067.04 40.4445Z" fill="#FFF8E6"/>
<path d="M1127.76 50.5556L1127.76 40.4445L1188.48 40.4445L1188.48 50.5556L1127.76 50.5556Z" fill="#FFF8E6"/>
<path d="M1360.52 50.5556L1360.52 40.4445L1401 40.4445L1401 50.5556L1360.52 50.5556Z" fill="#FFF8E6"/>
<path d="M895 50.5555L895 40.4444L915.24 40.4444L915.24 50.5556L895 50.5555Z" fill="#FFF8E6"/>
<path d="M1309.92 60.6667L1309.92 50.5556L1350.4 50.5556L1350.4 60.6667L1309.92 60.6667Z" fill="#FFF8E6"/>
<path d="M925.36 60.6667L925.36 50.5556L965.84 50.5556L965.84 60.6667L925.36 60.6667Z" fill="#FFF8E6"/>
<path d="M1148 70.7778L1148 60.6667L1208.72 60.6667L1208.72 70.7778L1148 70.7778Z" fill="#FFF8E6"/>
<path d="M1016.44 60.5403L1016.44 50.5556L1097.4 50.5556L1097.4 60.6667L1026.56 60.6667L1026.56 70.6514L975.96 70.6514L975.96 60.5403L1016.44 60.5403Z" fill="#FFF8E6"/>
<path d="M895 80.7625L895 70.6514L955.72 70.6514L955.72 80.7625L895 80.7625Z" fill="#FFF8E6"/>
<path d="M1087.28 80.7625L1087.28 70.6514L1117.64 70.6514L1117.64 80.7625L1087.28 80.7625Z" fill="#FFF8E6"/>
<path d="M1309.92 80.7625L1259.32 80.7625L1259.32 70.7778L1228.96 70.7778L1228.96 60.6667L1279.56 60.6667L1279.56 70.6514L1309.92 70.6514L1309.92 80.7625Z" fill="#FFF8E6"/>
<path d="M1380.76 80.7625L1380.76 70.7778L1401 70.7778L1401 90.8736L1340.28 90.8736L1340.28 80.7625L1380.76 80.7625Z" fill="#FFF8E6"/>
<path d="M965.84 91L965.84 101.111L895 101.111L895 91L935.48 91L935.48 80.8889L996.2 80.8889L996.2 91L965.84 91Z" fill="#FFF8E6"/>
<path d="M1127.76 111.222L1127.76 101.111L1158.12 101.111L1158.12 111.222L1127.76 111.222Z" fill="#FFF8E6"/>
<path d="M1016.44 111.222L1016.44 101.111L1046.8 101.111L1046.8 91L1097.4 91L1097.4 101.111L1067.04 101.111L1067.04 111.222L1117.64 111.222L1117.64 121.333L1158.12 121.333L1158.12 131.444L1097.4 131.444L1097.4 121.333L1036.68 121.333L1036.68 111.222L1016.44 111.222Z" fill="#FFF8E6"/>
<path d="M965.84 111.222L965.84 101.111L1006.32 101.111L1006.32 111.222L965.84 111.222Z" fill="#FFF8E6"/>
<path d="M925.36 131.444L945.6 131.444L945.6 121.333L1036.68 121.333L1036.68 131.444L1087.28 131.444L1087.28 141.556L1016.44 141.556L1016.44 131.444L965.84 131.444L965.84 141.429L986.08 141.429L986.08 151.54L895 151.54L895 141.429L905.12 141.429L905.12 131.444L895 131.444L895 111.222L925.36 111.222L925.36 131.444Z" fill="#FFF8E6"/>
<path d="M1401 192.111L1471.84 192.111L1471.84 182L1481.96 182L1481.96 171.889L1441.48 171.889L1441.48 182L1401 182L1401 161.778L1421.24 161.778L1421.24 151.667L1461.72 151.667L1461.72 161.778L1492.08 161.778L1492.08 151.667L1623.64 151.667L1623.64 161.778L1603.4 161.778L1603.4 171.889L1664.12 171.889L1664.12 161.778L1643.88 161.778L1643.88 151.667L1684.36 151.667L1684.36 161.778L1724.84 161.778L1724.84 151.667L1775.44 151.667L1775.44 161.778L1785.56 161.778L1785.56 171.889L1826.04 171.889L1826.04 161.778L1805.8 161.778L1805.8 151.667L1876.64 151.667L1876.64 141.556L1907 141.556L1907 151.667L1886.76 151.667L1886.76 161.778L1866.52 161.778L1866.52 171.889L1896.88 171.889L1896.88 161.778L1907 161.778L1907 182L1826.04 182L1826.04 192.111L1907 192.111L1907 364L1401 364L1401 192.111ZM1431.36 242.667L1431.36 252.778L1461.72 252.778L1461.72 242.667L1431.36 242.667ZM1481.96 222.444L1481.96 232.556L1512.32 232.556L1512.32 222.444L1481.96 222.444ZM1451.6 202.222L1451.6 212.333L1552.8 212.333L1552.8 202.222L1451.6 202.222ZM1583.16 171.889L1552.8 171.889L1552.8 161.778L1512.32 161.778L1512.32 171.889L1542.68 171.889L1542.68 182L1583.16 182L1583.16 171.889ZM1765.32 202.222L1765.32 192.111L1734.96 192.111L1734.96 182L1654 182L1654 192.111L1724.84 192.111L1724.84 202.222L1765.32 202.222ZM1684.36 202.222L1593.28 202.222L1593.28 212.333L1684.36 212.333L1684.36 202.222ZM1785.56 212.333L1755.2 212.333L1755.2 222.444L1785.56 222.444L1785.56 212.333ZM1876.64 232.556L1876.64 222.444L1826.04 222.444L1826.04 232.556L1876.64 232.556ZM1745.08 252.778L1745.08 242.667L1694.48 242.667L1694.48 252.778L1745.08 252.778ZM1593.28 252.778L1542.68 252.778L1542.68 262.889L1593.28 262.889L1593.28 252.778ZM1684.36 262.889L1654 262.889L1654 273L1684.36 273L1684.36 262.889ZM1846.28 283.111L1846.28 273L1805.8 273L1805.8 283.111L1846.28 283.111Z" fill="#FFF8E6"/>
<path d="M1785.56 10.1111L1785.56 1.68097e-05L1826.04 1.85791e-05L1826.04 10.1111L1785.56 10.1111Z" fill="#FFF8E6"/>
<path d="M1471.84 20.2222L1471.84 10.1111L1522.44 10.1111L1522.44 20.2222L1471.84 20.2222Z" fill="#FFF8E6"/>
<path d="M1603.4 20.2222L1603.4 10.1111L1654 10.1111L1654 20.2222L1603.4 20.2222Z" fill="#FFF8E6"/>
<path d="M1694.48 30.3333L1694.48 20.2222L1755.2 20.2222L1755.2 30.3333L1694.48 30.3333Z" fill="#FFF8E6"/>
<path d="M1542.68 30.3333L1542.68 20.2222L1573.04 20.2222L1573.04 30.3333L1542.68 30.3333Z" fill="#FFF8E6"/>
<path d="M1421.24 30.3333L1421.24 20.2222L1461.72 20.2222L1461.72 30.3333L1421.24 30.3333Z" fill="#FFF8E6"/>
<path d="M1785.56 40.4445L1785.56 30.3333L1846.28 30.3333L1846.28 40.4445L1785.56 40.4445Z" fill="#FFF8E6"/>
<path d="M1573.04 40.4445L1573.04 30.3333L1613.52 30.3333L1613.52 40.4445L1573.04 40.4445Z" fill="#FFF8E6"/>
<path d="M1633.76 50.5556L1633.76 40.4445L1694.48 40.4445L1694.48 50.5556L1633.76 50.5556Z" fill="#FFF8E6"/>
<path d="M1866.52 50.5556L1866.52 40.4445L1907 40.4445L1907 50.5556L1866.52 50.5556Z" fill="#FFF8E6"/>
<path d="M1401 50.5555L1401 40.4444L1421.24 40.4444L1421.24 50.5556L1401 50.5555Z" fill="#FFF8E6"/>
<path d="M1815.92 60.6667L1815.92 50.5556L1856.4 50.5556L1856.4 60.6667L1815.92 60.6667Z" fill="#FFF8E6"/>
<path d="M1431.36 60.6667L1431.36 50.5556L1471.84 50.5556L1471.84 60.6667L1431.36 60.6667Z" fill="#FFF8E6"/>
<path d="M1654 70.7778L1654 60.6667L1714.72 60.6667L1714.72 70.7778L1654 70.7778Z" fill="#FFF8E6"/>
<path d="M1522.44 60.5403L1522.44 50.5556L1603.4 50.5556L1603.4 60.6667L1532.56 60.6667L1532.56 70.6514L1481.96 70.6514L1481.96 60.5403L1522.44 60.5403Z" fill="#FFF8E6"/>
<path d="M1401 80.7625L1401 70.6514L1461.72 70.6514L1461.72 80.7625L1401 80.7625Z" fill="#FFF8E6"/>
<path d="M1593.28 80.7625L1593.28 70.6514L1623.64 70.6514L1623.64 80.7625L1593.28 80.7625Z" fill="#FFF8E6"/>
<path d="M1815.92 80.7625L1765.32 80.7625L1765.32 70.7778L1734.96 70.7778L1734.96 60.6667L1785.56 60.6667L1785.56 70.6514L1815.92 70.6514L1815.92 80.7625Z" fill="#FFF8E6"/>
<path d="M1886.76 80.7625L1886.76 70.7778L1907 70.7778L1907 90.8736L1846.28 90.8736L1846.28 80.7625L1886.76 80.7625Z" fill="#FFF8E6"/>
<path d="M1471.84 91L1471.84 101.111L1401 101.111L1401 91L1441.48 91L1441.48 80.8889L1502.2 80.8889L1502.2 91L1471.84 91Z" fill="#FFF8E6"/>
<path d="M1633.76 111.222L1633.76 101.111L1664.12 101.111L1664.12 111.222L1633.76 111.222Z" fill="#FFF8E6"/>
<path d="M1522.44 111.222L1522.44 101.111L1552.8 101.111L1552.8 91L1603.4 91L1603.4 101.111L1573.04 101.111L1573.04 111.222L1623.64 111.222L1623.64 121.333L1664.12 121.333L1664.12 131.444L1603.4 131.444L1603.4 121.333L1542.68 121.333L1542.68 111.222L1522.44 111.222Z" fill="#FFF8E6"/>
<path d="M1471.84 111.222L1471.84 101.111L1512.32 101.111L1512.32 111.222L1471.84 111.222Z" fill="#FFF8E6"/>
<path d="M1431.36 131.444L1451.6 131.444L1451.6 121.333L1542.68 121.333L1542.68 131.444L1593.28 131.444L1593.28 141.556L1522.44 141.556L1522.44 131.444L1471.84 131.444L1471.84 141.429L1492.08 141.429L1492.08 151.54L1401 151.54L1401 141.429L1411.12 141.429L1411.12 131.444L1401 131.444L1401 111.222L1431.36 111.222L1431.36 131.444Z" fill="#FFF8E6"/>
</svg>
