<?xml version="1.0" encoding="UTF-8" standalone="no"?>
<svg
   version="1.1"
   id="Layer_1"
   x="0px"
   y="0px"
   width="1544.0842"
   viewBox="0 0 1544.0842 570.87201"
   enable-background="new 0 0 1772 680"
   xml:space="preserve"
   sodipodi:docname="ocne-logo.svg"
   inkscape:version="1.2.2 (b0a8486541, 2022-12-01)"
   height="570.87201"
   xmlns:inkscape="http://www.inkscape.org/namespaces/inkscape"
   xmlns:sodipodi="http://sodipodi.sourceforge.net/DTD/sodipodi-0.dtd"
   xmlns="http://www.w3.org/2000/svg"
   xmlns:svg="http://www.w3.org/2000/svg"><defs
   id="defs91" /><sodipodi:namedview
   id="namedview89"
   pagecolor="#ffffff"
   bordercolor="#000000"
   borderopacity="0.25"
   inkscape:showpageshadow="2"
   inkscape:pageopacity="0.0"
   inkscape:pagecheckerboard="0"
   inkscape:deskcolor="#d1d1d1"
   showgrid="false"
   inkscape:zoom="0.40378104"
   inkscape:cx="754.12159"
   inkscape:cy="546.08805"
   inkscape:window-width="1625"
   inkscape:window-height="1163"
   inkscape:window-x="26"
   inkscape:window-y="23"
   inkscape:window-maximized="0"
   inkscape:current-layer="Layer_1" />

<path
   fill="#b8332a"
   opacity="1"
   stroke="none"
   d="m 2.0683237,270.96642 c 3.753997,-12.93447 6.560463,-26.24298 11.4837343,-38.71594 7.411972,-18.77795 18.890825,-35.32252 33.272535,-49.51054 12.17538,-12.01138 26.06621,-21.76108 41.39481,-29.66907 16.939967,-8.73927 35.006037,-13.42903 53.464377,-16.96188 5.95899,-1.14054 12.19384,-0.83981 19.21895,-1.14751 63.65468,0.0678 126.3929,0.087 189.13109,0.0898 1.65103,6e-5 3.30203,-0.17766 4.95306,-0.27248 9.65665,1.03899 19.43564,1.45066 28.93381,3.30254 8.61127,1.67898 17.10739,4.43469 25.30777,7.61036 9.93833,3.8487 19.85281,8.02868 29.13434,13.21625 7.09326,3.9645 13.1405,9.78029 19.73364,14.66379 14.56275,10.78656 25.39991,24.9335 34.77387,40.07675 5.33917,8.62534 8.8031,18.41147 13.21704,28.43149 1.04187,3.45282 1.97821,6.14905 2.91455,8.84528 0,0 -0.039,-0.0425 0.015,0.3779 1.77405,9.42617 3.49414,18.43197 5.14026,27.88208 -0.12982,12.7088 -0.19269,24.97323 -0.23571,37.23779 -0.009,2.54614 0.0555,5.09253 0.0862,7.63882 -0.94416,11.7529 -4.66816,22.71241 -8.86194,33.66266 -5.77283,15.0733 -13.99695,28.7926 -23.59479,41.46494 -6.86078,9.05841 -15.58002,16.87066 -24.22784,24.36444 -7.27539,6.30456 -15.16425,12.25262 -23.63733,16.74405 -13.81314,7.32205 -28.2544,13.4194 -43.73783,16.72699 -11.30243,2.41446 -22.6011,4.31579 -35.1083,3.91369 -1.74317,-0.0779 -2.57315,-0.15326 -3.40314,-0.15338 -62.36676,-0.008 -124.73355,-0.0118 -187.10033,0.002 -1.1501,2.7e-4 -2.30017,0.21176 -3.45027,0.32468 -20.13115,0.50836 -39.50159,-3.71576 -57.81247,-11.48407 C 90.415103,444.25761 78.204593,437.42078 66.674853,429.8906 45.364823,415.97282 30.060262,396.26649 18.229558,374.0749 13.006566,364.27778 9.1893737,353.5528 6.0891687,342.85627 c -2.708496,-9.345 -3.516616,-19.24085 -4.985603,-29.65366 0.407082,-13.33279 0.63546,-25.90521 0.863838,-38.47766 0,0 -0.08408,-0.35943 0.116524,-0.7442 0.12854,-1.26114 0.05647,-2.13754 -0.01559,-3.01392 M 354.74112,402.01853 c 3.53997,-0.26556 7.22244,0.002 10.59271,-0.89862 9.3287,-2.49283 19.11035,-4.28476 27.66745,-8.48407 25.29852,-12.41507 43.26712,-32.01632 53.00534,-58.71341 7.1333,-19.55569 7.84827,-39.69595 3.59344,-59.81476 -3.16497,-14.96527 -9.3529,-28.89883 -19.64972,-40.5552 -4.20266,-4.75754 -9.1358,-8.86667 -13.38037,-13.59091 -9.73498,-10.83512 -22.52249,-16.55584 -35.8652,-20.8257 -8.64874,-2.76772 -17.89032,-3.68299 -27.59702,-5.77706 -2.98224,-0.19043 -5.96435,-0.54522 -8.94668,-0.54696 -57.40653,-0.0335 -114.81305,-0.0405 -172.21956,0.0121 -3.29619,0.003 -6.5919,0.56044 -10.74349,1.00932 -1.93759,0.3752 -3.86007,0.94414 -5.81503,1.09642 -27.2189,2.12053 -49.45221,14.61299 -66.638613,34.94801 -19.82313,23.45484 -27.88545,51.07904 -23.91295,81.96909 1.97371,15.3475 7.15422,29.39804 15.29457,42.40637 12.48392,19.94928 30.257403,33.34808 52.036153,41.85199 10.59969,4.13882 21.53246,5.90924 33.43034,6.56671 1.98725,0.14627 3.97446,0.41959 5.96175,0.42032 57.65425,0.0206 115.30849,0.0286 172.96269,-0.0285 3.12784,-0.003 6.25507,-0.58799 10.22419,-1.04514 z"
   id="path4" />
<path
   fill="#FBFBFB"
   opacity="1"
   stroke="none"
   d="m 1183.4185,250.47216 c -14.3585,-21.26648 -28.4991,-42.24428 -43.3501,-64.27594 0,28.4119 0,55.69965 0,83.37992 -4.9482,0 -9.3207,0 -13.9918,0 0,-35.51844 0,-71.10173 0,-107.41738 3.8461,0 7.803,-0.31608 11.6593,0.16831 1.3839,0.17385 2.7782,2.1063 3.7402,3.52586 16.906,24.94818 33.7433,49.94302 50.6067,74.92011 0.9663,1.43133 2.0296,2.79736 3.8805,5.33608 0,-28.74349 0,-56.10343 0,-83.71432 4.7645,0 9.0221,0 13.6306,0 0,35.65958 0,71.23288 0,107.56815 -3.6966,0 -7.6252,0.1968 -11.5117,-0.12095 -1.1545,-0.0943 -2.463,-1.44412 -3.2351,-2.54528 -3.8225,-5.45191 -7.4891,-11.01313 -11.4286,-16.82456 z"
   id="path6"
   style="fill:#2c2926;fill-opacity:1" />
<path
   fill="#FBFBFB"
   opacity="1"
   stroke="none"
   d="m 1289.4529,385.34985 c 5.8334,0.18054 11.5614,-0.51865 16.6501,0.96899 10.1816,2.97644 15.0284,11.4697 15.4259,21.25687 0.7552,18.60031 0.2188,37.25305 0.2188,56.0538 -4.1473,0 -8.2799,0 -13.0595,0 0,-1.65701 0,-3.2536 0,-4.85016 0,-12.99801 0.013,-25.99606 -0.012,-38.99402 0,-2.32995 -0.04,-4.67215 -0.2728,-6.98733 -1.1516,-11.44232 -6.4701,-16.87088 -15.9973,-16.43747 -10.7974,0.49124 -19.4798,8.83447 -19.5113,18.86481 -0.045,14.33102 -0.012,28.66223 -0.012,42.99337 0,1.64298 0,3.28595 0,5.25388 -4.5292,0 -8.7518,0 -13.5857,0 0,-1.88879 0,-3.67322 -5e-4,-5.45767 -0.033,-14.49704 0.1369,-28.99832 -0.1655,-43.48978 -0.255,-12.22351 -5.8888,-18.37469 -15.8666,-18.19272 -10.6598,0.19443 -19.7574,9.2222 -19.8155,19.84876 -0.076,13.99746 -0.019,27.9956 -0.019,41.99347 0,1.64291 0,3.28579 0,5.27551 -4.576,0 -8.7831,0 -13.2905,0 0,-25.60892 0,-51.17139 0,-77.00784 2.8847,0 5.6548,0 8.863,0 0.7531,3.52526 1.5359,7.18936 2.5061,11.73117 6.7334,-8.13233 14.3673,-13.39182 24.7819,-13.49161 10.605,-0.10162 18.6632,3.9444 23.6294,14.14572 5.156,-6.82544 11.2093,-11.50534 19.5324,-13.47775 z"
   id="path8"
   style="fill:#2c2926;fill-opacity:1" />
<path
   fill="#FCFBFB"
   opacity="1"
   stroke="none"
   d="m 737.93061,368.0538 c -8.45117,0 -16.40234,0 -24.62073,0 0,11.71374 0,22.95861 0,34.66626 15.76361,0 31.5047,0 47.57849,0 0,4.18951 0,7.92651 0,12.15033 -15.67273,0 -31.39404,0 -47.48059,0 0,12.35391 0,24.23922 0,36.63116 17.72461,0 35.46143,0 53.40821,0 0,4.2561 0,8.00946 0,12.02933 -22.59314,0 -44.97559,0 -67.59644,0 0,-35.82495 0,-71.39105 0,-107.2728 21.99854,0 43.8916,0 66.1203,0 0,3.75302 0,7.47937 0,11.79572 -9.034,0 -17.97162,0 -27.40924,0 z"
   id="path10"
   style="fill:#2c2926;fill-opacity:1" />
<path
   fill="#F9F9F9"
   opacity="1"
   stroke="none"
   d="m 1066.8834,254.93341 c 0,5.13522 0,9.77139 0,14.7218 -3.2054,0 -6.0988,0 -9.3011,0 -0.7157,-3.47477 -1.4343,-6.96463 -2.3321,-11.32425 -5.4456,6.77148 -11.601,11.07895 -19.3891,12.58853 -18.5861,3.6026 -34.1988,-6.28458 -37.53979,-25.27634 -1.6357,-9.29855 -1.7428,-19.39548 0,-28.6546 4.46809,-23.79721 29.36059,-33.64992 49.90769,-20.59294 1.3693,0.87022 2.6802,1.83272 4.6306,3.17316 0,-13.75492 0,-26.94231 0,-40.48174 4.8823,0 9.2708,0 14.028,0 0,31.80942 0,63.5784 0,95.84638 m -13.7333,-40.89185 c -4.0933,-8.48085 -11.7025,-11.31461 -20.254,-11.92508 -8.6156,-0.61505 -15.4283,3.08348 -18.8726,11.13025 -5.072,11.84909 -4.9513,24.06619 0,35.89352 3.6985,8.82941 11.172,12.3891 20.6823,11.01947 6.2382,-0.89843 11.4581,-3.82202 15.0635,-8.84634 1.7947,-2.50107 3.0942,-5.89349 3.2335,-8.94589 0.4165,-9.12955 0.15,-18.29032 0.1443,-28.32593 z"
   id="path12"
   style="fill:#2c2926;fill-opacity:1" />
<path
   fill="#FAFAF9"
   opacity="1"
   stroke="none"
   d="m 709.80256,259.06951 c -3.86884,-6.15435 -8.55908,-11.66452 -10.89221,-18.03759 -5.82569,-15.91324 -5.84565,-32.38564 -0.78986,-48.54297 6.43286,-20.5586 24.86835,-32.72826 48.26984,-31.84914 6.54614,0.24594 13.05938,2.11542 19.52392,3.5313 4.44794,0.97424 6.78382,3.69917 5.88544,8.63539 -0.3429,1.88403 -0.0558,3.88273 -0.0558,6.15124 -5.33978,-1.72397 -10.10962,-3.72403 -15.07977,-4.79193 -27.14239,-5.83188 -46.08893,8.92819 -47.43548,37.04785 -0.27643,5.77193 0.0747,11.71358 1.14709,17.38594 4.34442,22.97904 21.48297,34.24735 45.35693,29.87979 6.48017,-1.18551 12.7807,-3.35287 19.8219,-5.24658 0,3.13578 0.16767,6.38269 -0.0956,9.5943 -0.0862,1.05222 -1.06482,2.49436 -2.01892,2.94357 -17.46942,8.22446 -47.10529,9.74479 -63.63751,-6.70117 z"
   id="path14"
   style="fill:#2c2926;fill-opacity:1" />
<path
   fill="#FAFAFA"
   opacity="1"
   stroke="none"
   d="m 1338.3537,425.79107 c 1.0802,-7.48703 1.3789,-14.76105 3.4687,-21.47775 3.1404,-10.09229 10.6304,-16.55344 21.0956,-18.38144 5.9712,-1.04294 12.3246,-1.35001 18.3119,-0.54547 12.3306,1.65674 20.2433,9.1077 22.6655,21.35257 1.4018,7.08652 1.5331,14.42431 2.3001,22.30505 -18.516,0 -36.0471,0 -53.5632,0 -0.1069,15.07129 7.398,24.03296 21.586,24.38651 7.4705,0.18618 15.0098,-2.03693 22.4998,-3.28232 1.5781,-0.26242 3.0764,-1.0062 5.1539,-1.71259 0,3.49222 0.2825,6.48325 -0.1309,9.37482 -0.1801,1.26089 -1.5634,2.92993 -2.7797,3.37375 -13.5162,4.93191 -27.3118,6.23651 -40.9154,0.83636 -12.5461,-4.98016 -17.3185,-15.78018 -19.0848,-28.30114 -0.348,-2.4672 -0.3993,-4.9762 -0.6075,-7.92835 m 52.873,-17.24695 c -2.9377,-9.88415 -10.8619,-14.2799 -22.2558,-12.34576 -10.2492,1.73981 -16.5241,10.07843 -16.2534,21.76501 13.0493,0 26.1012,0 39.6397,0 -0.3141,-3.07733 -0.5963,-5.84347 -1.1305,-9.41925 z"
   id="path16"
   style="fill:#2c2926;fill-opacity:1" />
<path
   fill="#FBFBFA"
   opacity="1"
   stroke="none"
   d="m 1512.5109,259.8507 c 6.8889,-1.45938 13.3288,-2.90234 19.9752,-4.39163 0.013,0.0363 0.2723,0.44958 0.2872,0.87149 0.3847,10.91901 -0.1,11.98737 -11.1835,13.62433 -7.3358,1.08346 -14.9395,1.59457 -22.3053,0.97092 -14.5899,-1.23536 -24.2615,-9.84134 -27.9975,-23.84641 -2.5249,-9.46536 -2.7789,-19.1268 -0.9465,-28.7218 3.8374,-20.0954 19.0297,-30.24466 40.1769,-27.10452 14.6494,2.1753 23.0779,10.47822 25.1764,25.47308 0.8249,5.8945 0.7119,11.92023 1.061,18.55124 -18.0453,0 -35.5882,0 -53.0942,0 -0.5871,14.8371 7.7721,23.99066 21.9121,24.61197 2.1587,0.0949 4.3259,-0.01 6.9382,-0.0387 m 9.4303,-46.08249 c -3.5641,-9.41044 -10.9243,-13.15255 -22.0602,-11.21595 -10.3569,1.80111 -16.1493,9.40687 -16.4349,21.74009 13.1516,0 26.2965,0 39.9979,0 -0.4837,-3.54272 -0.9054,-6.63165 -1.5028,-10.52414 z"
   id="path18"
   style="fill:#2c2926;fill-opacity:1" />
<path
   fill="#FBFBFA"
   opacity="1"
   stroke="none"
   d="m 1232.509,231.5559 c 6.0604,-6.80636 13.7071,-9.30951 22.105,-9.65771 7.1397,-0.29599 14.3015,-0.0611 21.342,-0.0611 3.1107,-12.56987 -2.2824,-20.2195 -14.5308,-19.6357 -8.8545,0.42202 -17.6279,2.54602 -27.036,4.00371 0,-2.11786 -0.2242,-4.89517 0.1041,-7.60556 0.1427,-1.17723 1.1973,-2.86748 2.2188,-3.21983 12.3144,-4.24753 24.8542,-6.31568 37.7102,-2.58228 9.3687,2.72069 15.0779,9.32447 15.3811,18.78252 0.6183,19.28723 0.1852,38.60818 0.1852,58.1539 -2.8164,0 -5.5912,0 -8.796,0 -0.7622,-3.45383 -1.5537,-7.04004 -2.3936,-10.84531 -14.7308,14.1893 -31.7371,16.81128 -43.4735,6.96897 -9.4185,-7.89844 -10.7405,-22.65442 -2.8165,-34.30158 m 25.2058,0.31577 c -1.3201,0.12814 -2.6592,0.15597 -3.9573,0.40042 -9.6655,1.81998 -14.3292,8.33832 -12.5074,17.4158 1.6845,8.39368 8.9873,12.82532 18.3452,10.23978 11.1137,-3.07062 20.3318,-10.08786 16.7665,-28.09107 -5.8449,0 -11.776,0 -18.647,0.0351 z"
   id="path20"
   style="fill:#2c2926;fill-opacity:1" />
<path
   fill="#FAFAFA"
   opacity="1"
   stroke="none"
   d="m 829.65333,205.68812 c 9.44214,-12.88034 24.6131,-17.88628 41.65606,-13.50052 14.74378,3.79405 22.85383,14.07929 24.57886,28.71336 0.95465,8.09864 0.81696,16.71042 -0.87372,24.65571 -3.42071,16.07531 -14.70019,24.64669 -31.70672,25.99996 -16.92121,1.34644 -30.70581,-5.76699 -36.24713,-19.86746 -6.05158,-15.39904 -5.81159,-30.85531 2.59265,-46.00105 m 17.69464,-0.0291 c -2.65717,3.52914 -6.27222,6.69364 -7.78205,10.65955 -3.71838,9.76745 -3.51666,19.96017 -0.14776,29.87646 3.19287,9.39798 10.41235,14.11273 20.69641,14.07559 10.30975,-0.0372 18.15839,-4.63354 20.44086,-14.19702 1.81067,-7.58682 2.59649,-15.92047 1.51422,-23.59485 -2.54785,-18.0672 -17.67664,-25.28611 -34.72168,-16.81973 z"
   id="path22"
   style="fill:#2c2926;fill-opacity:1" />
<path
   fill="#FAFAFA"
   opacity="1"
   stroke="none"
   d="m 1066.9936,465.25512 c -22.2726,-0.92316 -35.4047,-13.54877 -36.0315,-35.48965 -0.2283,-7.98856 0.7914,-16.3639 3.1179,-23.99051 3.3306,-10.91898 11.6289,-17.60346 22.9514,-19.97699 9.3112,-1.95197 18.5581,-1.75525 27.4193,2.11874 9.8932,4.32529 15.5675,12.28656 18.1758,22.45361 2.4815,9.67301 2.4828,19.50333 0,29.18171 -4.2582,16.63064 -15.8593,24.98944 -35.6377,25.70309 m 17.7784,-61.57785 c -11.1112,-12.2822 -30.823,-10.14856 -37.0534,4.38055 -4.7868,11.16236 -4.6285,22.80375 0.053,34.02652 3.5334,8.47062 10.6224,11.92728 19.5981,11.93558 8.9436,0.008 16.2725,-3.25564 19.6841,-11.77957 5.1113,-12.7706 5.2003,-25.62057 -2.2819,-38.56308 z"
   id="path24"
   style="fill:#2c2926;fill-opacity:1" />
<path
   fill="#FAFAFA"
   opacity="1"
   stroke="none"
   d="m 837.68671,439.93762 c -1.8e-4,-6.99714 0.002,-13.49427 -0.002,-19.9914 -7.3e-4,-1.33255 0.0217,-2.66711 -0.0401,-3.99734 -0.58307,-12.54804 -5.03607,-18.27979 -15.05359,-19.40622 -10.14771,-1.14109 -21.98755,6.49429 -24.55054,15.94558 -0.38232,1.4101 -0.26483,2.97355 -0.26666,4.46619 -0.0174,13.82724 -0.0102,27.65448 -0.0102,41.48172 0,1.61728 0,3.23453 0,5.10474 -4.75037,0 -8.98517,0 -13.47937,0 0,-25.66736 0,-51.09931 0,-77.80365 3.21936,0.6608 7.52765,0.29126 9.1084,2.19113 1.92041,2.3081 1.54071,6.52991 2.36999,11.104 1.80725,-2.13153 2.84576,-3.58456 4.107,-4.80786 9.95434,-9.65457 21.86181,-11.75693 34.67413,-7.8114 10.46234,3.22192 15.62781,11.79105 16.0459,22.0127 0.74725,18.26852 0.21045,36.5896 0.21045,55.13189 -4.11096,0 -8.2143,0 -13.11341,0 0,-7.6579 0,-15.38897 0,-23.62008 z"
   id="path26"
   style="fill:#2c2926;fill-opacity:1" />
<path
   fill="#F8F8F7"
   opacity="1"
   stroke="none"
   d="m 1144.6194,388.55822 c 4.1185,-1.34955 7.8495,-3.14249 11.7277,-3.55606 19.4265,-2.07144 30.8965,7.12631 31.8344,26.65415 0.8206,17.08737 0.1712,34.24536 0.1712,51.76208 -4.3042,0 -8.5157,0 -13.1598,0 -0.09,-1.30282 -0.2717,-2.73077 -0.2741,-4.15903 -0.022,-12.98837 -0.011,-25.97683 -0.015,-38.96527 -4e-4,-1.66494 0.03,-3.33298 -0.056,-4.99432 -0.3538,-6.86545 -1.5143,-13.57718 -8.4203,-16.93314 -7.3206,-3.55743 -14.731,-2.60632 -21.3137,1.99863 -6.3614,4.45004 -10.5602,10.09677 -10.2503,18.69882 0.4731,13.13794 0.1239,26.30545 0.1241,39.46042 0,1.61258 0,3.22513 0,5.05753 -4.6305,0 -8.7428,0 -13.2834,0 0,-25.53241 0,-51.06473 0,-77.01154 2.7359,0 5.6172,0 8.9756,0 0.71,3.6358 1.4546,7.44861 2.194,11.2348 3.9842,-3.15735 7.7051,-6.10589 11.7453,-9.24707 z"
   id="path28"
   style="fill:#2c2926;fill-opacity:1" />
<path
   fill="#FAFAFA"
   opacity="1"
   stroke="none"
   d="m 1437.5402,394.6455 c 8.6798,-8.82791 19.0965,-11.16589 30.5496,-9.50235 11.0859,1.61023 19.5365,9.27036 20.2688,21.51444 1.1283,18.86566 0.297,37.84851 0.297,56.96386 -3.9729,0 -8.0791,0 -12.6074,0 -0.089,-1.70785 -0.2427,-3.30545 -0.2452,-4.90328 -0.02,-12.81995 -0.01,-25.6399 -0.014,-38.45988 -5e-4,-1.66464 0.045,-3.33434 -0.063,-4.99304 -0.458,-7.02212 -1.632,-13.91903 -8.9262,-17.1355 -7.6095,-3.35549 -15.0865,-2.16339 -21.6794,2.81247 -5.9287,4.47452 -9.6509,9.99158 -9.3884,18.14359 0.471,14.62839 0.1328,29.28284 0.1328,44.32098 -4.4339,0 -8.6692,0 -13.3343,0 0,-25.35034 0,-50.88592 0,-76.83209 2.6928,0 5.5772,0 8.9299,0 0.7425,3.64865 1.5213,7.47556 2.538,12.47153 1.475,-1.86472 2.3774,-3.0055 3.5414,-4.40073 z"
   id="path30"
   style="fill:#2c2926;fill-opacity:1" />
<path
   fill="#FBFBFB"
   opacity="1"
   stroke="none"
   d="m 917.00861,258.77154 c -1.22168,-4.33188 -3.14648,-8.30664 -3.22284,-12.31665 -0.33862,-17.77316 -0.1466,-35.55649 -0.1466,-53.60428 4.22809,0 8.4964,0 13.26104,0 0,12.39554 -0.0759,24.6691 0.0338,36.94101 0.0505,5.64401 -0.1402,11.39255 0.84125,16.90442 2.00097,11.23776 11.34293,16.24539 22.12243,12.47024 9.5355,-3.33941 15.9042,-12.29663 15.9038,-22.36404 -8e-4,-14.4848 -2e-4,-28.96962 -2e-4,-43.8364 4.4214,0 8.6363,0 13.2263,0 0,25.41712 0,50.96399 0,76.75947 -2.9641,0 -5.8878,0 -8.9338,0 -0.7555,-3.87058 -1.4862,-7.61417 -2.3533,-12.05646 -8.961,10.92132 -20.0005,15.64859 -33.667,13.38031 -7.55971,-1.25467 -13.17323,-5.27191 -17.0649,-12.27762 z"
   id="path32"
   style="fill:#2c2926;fill-opacity:1" />
<path
   fill="#F9F9F9"
   opacity="1"
   stroke="none"
   d="m 926.68592,386.16314 c 1.60223,-9e-5 2.75738,-9e-5 4.44403,-9e-5 -0.47302,1.58527 -0.74536,2.82312 -1.20404,3.98752 -9.1366,23.18976 -18.48993,46.29733 -27.2876,69.61465 -1.81183,4.80222 -4.84906,3.88431 -8.17883,4.06378 -3.14514,0.1695 -5.31067,-0.0571 -6.76074,-3.87017 -8.85944,-23.29642 -18.11237,-46.44312 -27.21814,-69.646 -0.46875,-1.19449 -0.79053,-2.44669 -1.33148,-4.14569 4.23767,0 8.07812,-0.34195 11.79815,0.17795 1.37793,0.19259 3.03717,2.19906 3.61048,3.73559 6.27276,16.81317 12.35186,33.69858 18.49713,50.55945 0.61999,1.70111 1.32873,3.36994 2.36401,5.98114 1.18872,-3.17316 2.09381,-5.53058 2.95715,-7.9032 5.39808,-14.83441 10.78418,-29.67318 16.17957,-44.50857 2.92688,-8.04776 2.9317,-8.04602 12.13031,-8.04636 z"
   id="path34"
   style="fill:#2c2926;fill-opacity:1" />
<path
   fill="#FAFAFA"
   opacity="1"
   stroke="none"
   d="m 1419.8779,268.35974 c -9.9193,-25.25977 -19.708,-50.12946 -29.7935,-75.75293 4.7111,0 8.8471,-0.29151 12.8917,0.18785 1.1292,0.13383 2.3515,2.40919 2.9162,3.93037 6.3659,17.15027 12.6107,34.34555 18.8935,51.5268 0.4545,1.24307 0.9522,2.47039 1.683,4.35977 0.8768,-1.98718 1.6006,-3.40226 2.1398,-4.8844 6.0832,-16.72229 12.2682,-33.40976 18.1008,-50.21942 1.2927,-3.72591 2.8031,-5.59359 6.9561,-5.00003 2.7147,0.388 5.53,0.0732 8.9325,0.0732 -5.8144,14.79332 -11.3201,28.83389 -16.852,42.86413 -3.7821,9.59244 -7.8635,19.07785 -11.2854,28.79627 -1.5693,4.45715 -3.7215,6.68478 -8.4931,5.73047 -1.9883,-0.39765 -3.9729,-0.81406 -6.0896,-1.61209 z"
   id="path36"
   style="fill:#2c2926;fill-opacity:1" />
<path
   fill="#F8F7F7"
   opacity="1"
   stroke="none"
   d="m 1513.0861,439.82244 c 0,-14.26889 0,-28.0542 0,-42.27337 -4.5791,0 -8.6766,0 -12.6025,0 -1.9457,-5.42881 -0.1535,-8.32874 5.0322,-9.03547 6.1689,-0.84072 8.9728,-4.38644 9.7124,-10.48077 0.5149,-4.24255 2.0704,-8.35879 3.23,-12.79462 2.6376,0 5.2207,0 8.2541,0 0,6.80069 0,13.55863 0,20.7808 5.6601,0 10.9071,0 16.5061,0 0,3.88244 0,7.3009 0,11.22183 -5.1391,0 -10.3905,0 -16.3735,0 0,3.56668 -10e-5,6.65228 0,9.73788 4e-4,10.32959 -0.027,20.65928 0.01,30.98874 0.04,11.81113 3.1667,14.7302 14.9706,14.10364 0.6549,-0.0348 1.3131,-0.004 2.2643,-0.004 0,3.90192 0,7.65409 0,11.37897 -19.8702,4.33609 -30.3589,-3.53918 -30.9981,-23.62314 z"
   id="path38"
   style="fill:#2c2926;fill-opacity:1" />
<path
   fill="#FCFBFB"
   opacity="1"
   stroke="none"
   d="m 1327.364,232.9381 c 0.03,4.99738 -0.1428,9.5073 0.1319,13.98981 0.5597,9.13086 4.5274,12.43073 13.6087,11.66046 1.1145,-0.0945 2.226,-0.22226 3.6251,-0.36343 0,3.92349 0,7.53067 0,11.14834 -16.9251,6.00855 -30.5331,-3.08731 -30.8263,-20.90164 -0.241,-14.63726 -0.049,-29.28164 -0.049,-44.36876 -4.3467,0 -8.4316,0 -12.3716,0 -2.0589,-6.55595 -1.8679,-7.79585 3.8194,-8.9272 6.9226,-1.37704 10.0699,-5.09349 10.8188,-11.90455 0.4313,-3.92056 1.9137,-7.72554 2.9869,-11.8273 2.5309,0 4.9633,0 8.077,0 0,6.76002 0,13.62611 0,20.98793 5.9029,0 11.1562,0 16.6452,0 0,3.93847 0,7.36396 0,11.27089 -5.3335,0 -10.5868,0 -16.466,0 0,9.88874 0,19.31218 0,29.23545 z"
   id="path40"
   style="fill:#2c2926;fill-opacity:1" />
<path
   fill="#E3E3E3"
   opacity="1"
   stroke="none"
   d="m 595.8913,221.93841 c 10e-4,116.64267 10e-4,232.78534 10e-4,348.92798 -0.33349,0.002 -0.66699,0.004 -1.00049,0.006 -0.68194,-190.27868 -1.36389,-380.55735 -2.04583,-570.83602 0.71277,-0.01199 1.42553,-0.02399 2.1383,-0.03598 0.0826,24.323845 0.14472,48.647789 0.25336,72.971518 0.11096,24.82781 0.28821,49.655322 0.39831,74.483142 0.10938,24.66113 0.17139,49.32249 0.25525,74.48375 z"
   id="path42"
   style="fill:#2c2926;fill-opacity:1" />
<path
   fill="#FFFFFF"
   opacity="1"
   stroke="none"
   d="m 792.65546,181.96179 c 0,-2.32854 -0.21759,-4.19318 0.0424,-5.98867 0.67212,-4.64119 -0.75512,-7.76457 -5.13324,-10.0795 -1.73864,-0.91928 -2.36657,-3.93917 -3.96692,-6.85229 8.25251,0 15.02423,0 22.1532,0 0,36.76172 0,73.62303 0,110.7028 -4.20642,0 -8.30517,0 -13.09546,0 0,-29.12786 0,-58.20741 0,-87.78234 z"
   id="path44"
   style="fill:#2c2926;fill-opacity:1" />
<path
   fill="#F8F8F7"
   opacity="1"
   stroke="none"
   d="m 984.45671,463.34051 c -0.3415,-25.75528 -0.3415,-51.18805 -0.3415,-77.15601 3.386,1.07288 7.6321,-2.70584 9.5464,2.36676 1.2063,3.19641 1.3645,6.7883 2.2066,11.36432 6.51029,-10.57599 14.88009,-15.4815 26.73719,-13.27667 0,3.97403 0,7.59619 0,11.55621 -1.3002,0.15949 -2.5706,0.37671 -3.8497,0.46283 -13.1139,0.88288 -21.06169,9.27823 -21.07659,22.32404 -0.014,12.4884 0,24.97681 -0.012,37.46521 0,1.62167 -0.1323,3.24313 -0.2185,5.21585 -4.4232,0 -8.5366,0 -12.9916,-0.32254 z"
   id="path46"
   style="fill:#2c2926;fill-opacity:1" />
<path
   fill="#F8F7F7"
   opacity="1"
   stroke="none"
   d="m 1377.6218,232.93862 c 0,12.4476 0,24.39521 0,36.69089 -4.5642,0 -8.7922,0 -13.7201,0 0,-1.62927 1e-4,-3.3822 1e-4,-5.13513 10e-5,-18.79062 -0.1007,-37.58228 0.089,-56.371 0.036,-3.56408 -0.6517,-6.06662 -4.0907,-7.48165 -3.4613,-1.42416 -4.7074,-3.93661 -3.2817,-7.78987 6.8143,0 13.7155,0 21.0035,0 0,13.38143 0,26.48407 0,40.08676 z"
   id="path48"
   style="fill:#2c2926;fill-opacity:1" />
<path
   fill="#F7F7F7"
   opacity="1"
   stroke="none"
   d="m 948.57661,463.26049 c -0.3799,-20.80374 -0.5178,-41.27286 -0.4222,-61.7409 0.016,-3.37339 -0.6712,-5.79313 -3.9321,-7.09607 -3.5851,-1.43253 -4.5608,-4.03733 -3.2357,-7.93207 6.6022,0 13.3306,0 20.4608,0 0,25.47018 0,50.99847 0,77.104 -4.069,0 -8.31,0 -12.8708,-0.33496 z"
   id="path50"
   style="fill:#2c2926;fill-opacity:1" />
<path
   fill="#EFEEEE"
   opacity="1"
   stroke="none"
   d="m 951.04601,368.79266 c -2.1055,3e-5 -3.7361,3e-5 -5.7187,3e-5 0,-4.18228 0,-8.04398 0,-12.21301 5.2273,0 10.4466,0 16.0485,0 0,3.93322 0,7.77295 0,12.21295 -3.3368,0 -6.596,0 -10.3298,3e-5 z"
   id="path52"
   style="fill:#2c2926;fill-opacity:1" />
<path
   fill="#FCFBFB"
   opacity="1"
   stroke="none"
   d="m 1377.2619,173.62171 c -5.339,0.8515 -10.6111,1.27402 -16.1738,1.71984 0,-4.52387 0,-8.2472 0,-12.29254 5.1985,0 10.3845,0 16.2408,0 0,3.35734 0,6.75053 -0.067,10.5727 z"
   id="path54"
   style="fill:#2c2926;fill-opacity:1" />
<path
   fill="#00fdff"
   opacity="1"
   stroke="none"
   d="m 161.16798,461.4317 c 0.86799,-0.43311 2.01806,-0.6446 3.16816,-0.64487 62.36678,-0.0135 124.73357,-0.01 187.10033,-0.002 0.82999,1.2e-4 1.65997,0.0754 2.94528,0.21051 -0.95639,0.37805 -2.36792,0.90808 -3.77978,0.909 -62.39005,0.0402 -124.78015,0.0344 -187.17025,0.0252 -0.66055,-10e-5 -1.32109,-0.11618 -2.26374,-0.49826 z"
   id="path56" />
<path
   fill="#00fdff"
   opacity="1"
   stroke="none"
   d="m 354.73212,134.43054 c -1.39627,0.44305 -3.04727,0.62077 -4.6983,0.62071 -62.73819,-0.003 -125.47641,-0.0219 -188.67459,-0.15495 1.1053,-0.39275 2.67056,-0.91126 4.23581,-0.91118 62.96078,0.003 125.92157,0.0532 189.13708,0.44542 z"
   id="path58" />
<path
   fill="#CA7071"
   opacity="1"
   stroke="none"
   d="m 514.33369,323.7893 c -0.35669,-2.27377 -0.42121,-4.82016 -0.41223,-7.3663 0.043,-12.26456 0.10589,-24.52899 0.35235,-37.259 0.19061,-0.46549 0.42853,-0.45807 0.42853,-0.45807 0.097,12.46731 0.21496,24.93451 0.27356,37.40201 0.0116,2.46908 -0.20484,4.9392 -0.64221,7.68136 z"
   id="path60"
   style="fill:#2c2926;fill-opacity:1" />
<path
   fill="#DAAFAE"
   opacity="1"
   stroke="none"
   d="m 514.72541,278.27566 c -0.0231,0.43027 -0.26099,0.42285 -0.37762,0.44406 -1.83674,-8.98462 -3.55683,-17.99042 -5.30243,-27.41196 3.01471,8.3284 6.07055,17.06925 5.68005,26.9679 z"
   id="path62"
   style="fill:#2c2926;fill-opacity:1" />
<path
   fill="#ca7071"
   opacity="1"
   stroke="none"
   d="m 1.6572287,275.01354 c 0.08179,12.28345 -0.146591,24.85587 -0.563408,37.73609 C 0.58912873,312.35482 -0.02274127,311.64221 6.5072572e-4,310.95114 0.40293373,299.06667 0.88359273,287.1849 1.6572287,275.01354 Z"
   id="path64" />
<path
   fill="#DAAFAE"
   opacity="1"
   stroke="none"
   d="m 508.89967,250.53869 c -0.83411,-2.30969 -1.77045,-5.00592 -2.76691,-8.06763 0.84808,2.31671 1.75635,4.99891 2.76691,8.06763 z"
   id="path66"
   style="fill:#2c2926;fill-opacity:1" />
<path
   fill="#ca7071"
   opacity="1"
   stroke="none"
   d="m 1.9402567,271.24206 c 0.200134,0.60074 0.272201,1.47714 0.121116,2.55511 -0.231827,-0.62542 -0.240501,-1.45245 -0.121116,-2.55511 z"
   id="path68" />

<path
   fill="#daafae"
   opacity="1"
   stroke="none"
   d="m 353.47312,193.53277 c -63.25265,0.1722 -126.8707,0.17001 -190.9541,0.15921 2.83057,-0.30804 6.12628,-0.86548 9.42247,-0.86848 57.40651,-0.0525 114.81303,-0.0456 172.21956,-0.0121 2.98233,0.002 5.96444,0.35653 9.31207,0.72134 z"
   id="path72" />
<path
   fill="#daafae"
   opacity="1"
   stroke="none"
   d="m 165.28809,402.38912 c 22.35796,-0.34005 45.02036,-0.45742 67.68268,-0.44244 39.99356,0.0264 79.98703,0.13354 120.45465,0.21072 -2.65344,0.31787 -5.78067,0.90274 -8.90851,0.90586 -57.6542,0.0571 -115.30844,0.0491 -172.96269,0.0285 -1.98729,-7.3e-4 -3.9745,-0.27405 -6.26613,-0.70261 z"
   id="path74" />






</svg>
