<svg width="121" height="178" viewBox="0 0 121 178" fill="none" xmlns="http://www.w3.org/2000/svg">
<path d="M116.792 87.1837L121.001 84.7202L120.487 173.61L116.279 176.176L114.945 124.033L116.792 87.1837Z" fill="#F4CB00"/>
<path d="M55.2046 51.5661L59.413 49L121 84.7203L116.791 87.1838L90.309 75.8929L55.2046 51.5661Z" fill="#F4CB00"/>
<path d="M116.792 87.1836L116.279 176.176L55 140.764L55.2053 51.5659L116.792 87.1836Z" fill="#FFF980"/>
<path d="M87.9478 128.448C88.9742 129.063 89.7954 130.5 89.7954 131.63C89.7954 132.861 88.9742 133.272 87.9478 132.759L65.5712 119.825C64.5448 119.21 63.7236 117.773 63.7236 116.541C63.7236 115.309 64.5448 114.899 65.5712 115.514L87.9478 128.448Z" fill="#F4CB00"/>
<path d="M88.0503 115.515C89.0767 116.13 89.8978 117.567 89.8978 118.696C89.8978 119.928 89.0767 120.339 88.0503 119.826L65.6738 106.892C64.6473 106.277 63.8262 104.839 63.8262 103.608C63.8262 102.376 64.6473 101.965 65.6738 102.581L88.0503 115.515Z" fill="#F4CB00"/>
<path d="M88.0503 102.786C89.0767 103.402 89.8978 104.839 89.8978 105.968C89.8978 107.2 89.0767 107.611 88.0503 107.098L65.6738 94.1643C64.6473 93.5484 63.8262 92.1114 63.8262 90.8797C63.8262 89.648 64.6473 89.2374 65.6738 89.8533L88.0503 102.786Z" fill="#F4CB00"/>
<path d="M106.218 109.561L107.758 112.23L98.52 117.465L94.7222 110.895L96.2618 109.972L98.52 113.975L106.218 109.561Z" fill="#F4CB00"/>
<path d="M106.114 135.53L107.654 138.199L98.416 143.434L94.6182 136.865L96.1578 135.941L98.416 139.944L106.114 135.53Z" fill="#F4CB00"/>
<path d="M106.217 122.187L107.757 124.855L98.5186 130.09L94.6182 123.521L96.1578 122.597L98.5186 126.6L106.217 122.187Z" fill="#F4CB00"/>
<path d="M86.1335 53.2254L91.9997 49.7915L91.2843 173.698L85.4181 177.275L83.5581 104.591L86.1335 53.2254Z" fill="#F4CB00"/>
<path d="M0.285156 3.57699L6.15138 0L91.9991 49.7917L86.1329 53.2256L49.2184 37.4868L0.285156 3.57699Z" fill="#F4CB00"/>
<path d="M86.1339 53.2253L85.4185 177.275L0 127.913L0.286176 3.57666L86.1339 53.2253Z" fill="#FFF980"/>
<path d="M45.9267 110.745C47.3575 111.603 48.5021 113.606 48.5021 115.18C48.5021 116.897 47.3575 117.469 45.9267 116.754L14.7353 98.726C13.3045 97.8675 12.1599 95.8644 12.1599 94.1475C12.1599 92.4305 13.3045 91.8582 14.7353 92.7167L45.9267 110.745Z" fill="#F4CB00"/>
<path d="M46.0692 92.7174C47.5 93.5758 48.6446 95.579 48.6446 97.1528C48.6446 98.8698 47.5 99.4421 46.0692 98.7267L14.8779 80.6987C13.4471 79.8402 12.3025 77.8371 12.3025 76.1201C12.3025 74.4032 13.4471 73.8309 14.8779 74.6893L46.0692 92.7174Z" fill="#F4CB00"/>
<path d="M46.0692 74.9752C47.5 75.8337 48.6446 77.8367 48.6446 79.4106C48.6446 81.1276 47.5 81.6999 46.0692 80.9845L14.8779 62.9565C13.4471 62.098 12.3025 60.0949 12.3025 58.3779C12.3025 56.661 13.4471 56.0887 14.8779 56.9471L46.0692 74.9752Z" fill="#F4CB00"/>
<path d="M71.395 84.4185L73.5412 88.1385L60.6641 95.4356L55.3701 86.2785L57.5163 84.9908L60.6641 90.5709L71.395 84.4185Z" fill="#F4CB00"/>
<path d="M71.2497 120.618L73.3959 124.338L60.5187 131.635L55.2249 122.478L57.371 121.19L60.5187 126.77L71.2497 120.618Z" fill="#F4CB00"/>
<path d="M71.3928 102.018L73.539 105.738L60.6619 113.035L55.2249 103.878L57.371 102.59L60.6619 108.17L71.3928 102.018Z" fill="#F4CB00"/>
</svg>
