<svg width="78" height="60" viewBox="0 0 78 60" fill="none" xmlns="http://www.w3.org/2000/svg">
<path d="M6.42857 60H5.14286V58.7143V57.4285V56.1428V54.8571H3.85714H2.57143V56.1428V57.4285V58.7143V60H1.28571H0V58.7143V57.4285V56.1428V54.8571V53.5714V52.2857V51V49.7143V48.4285V47.1428H1.28571H2.57143V48.4285V49.7143V51V52.2857H3.85714H5.14286V51V49.7143V48.4285V47.1428H6.42857H7.71429V48.4285V49.7143V51V52.2857V53.5714V54.8571V56.1428V57.4285V58.7143V60H6.42857Z" fill="#FFF200"/>
<path d="M16.4571 60H15.1714H13.8857H12.6H11.3143H10.0286V58.7143V57.4285V56.1428V54.8571V53.5714V52.2857V51V49.7143V48.4285V47.1428H11.3143H12.6H13.8857H15.1714H16.4571H17.7428V48.4285V49.7143H16.4571H15.1714H13.8857H12.6V51V52.2857H13.8857H15.1714H16.4571H17.7428V53.5714V54.8571H16.4571H15.1714H13.8857H12.6V56.1428V57.4285H13.8857H15.1714H16.4571H17.7428V58.7143V60H16.4571Z" fill="#FFF200"/>
<path d="M26.4857 60H25.2V58.7143V57.4285V56.1428V54.8571H23.9143H22.6285V56.1428V57.4285V58.7143V60H21.3428H20.0571V58.7143V57.4285V56.1428V54.8571V53.5714V52.2857V51V49.7143V48.4285V47.1428H21.3428H22.6285H23.9143H25.2H26.4857H27.7714V48.4285V49.7143V51V52.2857V53.5714V54.8571V56.1428V57.4285V58.7143V60H26.4857ZM23.9143 52.3071H25.2V51.0214V49.7357H23.9143H22.6285V51.0214V52.3071H23.9143Z" fill="#FFF200"/>
<path d="M33.9428 60H32.6571H31.3714H30.0857V58.7143V57.4285V56.1428V54.8571V53.5714V52.2857V51V49.7143V48.4285V47.1428H31.3714H32.6571H33.9428H35.2286V48.4285V49.7143H36.5143H37.8V51V52.2857V53.5714V54.8571V56.1428V57.4285H36.5143H35.2286V56.1428V54.8571V53.5714V52.2857V51V49.7143H33.9428H32.6571V51V52.2857V53.5714V54.8571V56.1428V57.4285H33.9428H35.2286V58.7143V60H33.9428Z" fill="#FFF200"/>
<path d="M46.5428 60H45.2571H43.9714H42.6857H41.4H40.1143V58.7143V57.4285V56.1428V54.8571V53.5714V52.2857V51V49.7143V48.4285V47.1428H41.4H42.6857V48.4285V49.7143V51V52.2857V53.5714V54.8571V56.1428V57.4285H43.9714H45.2571H46.5428H47.8285V58.7143V60H46.5428Z" fill="#FFF200"/>
<path d="M56.5714 60H55.2857V58.7143V57.4285V56.1428V54.8571H54H52.7143V56.1428V57.4285V58.7143V60H51.4285H50.1428V58.7143V57.4285V56.1428V54.8571V53.5714V52.2857V51V49.7143V48.4285V47.1428H51.4285H52.7143H54H55.2857H56.5714H57.8571V48.4285V49.7143V51V52.2857V53.5714V54.8571V56.1428V57.4285V58.7143V60H56.5714ZM54 52.3071H55.2857V51.0214V49.7357H54H52.7143V51.0214V52.3071H54Z" fill="#FFF200"/>
<path d="M66.6 60H65.3142V58.7143V57.4285V56.1428V54.8571V53.5714V52.2857H64.0285H62.7428V53.5714V54.8571V56.1428V57.4285V58.7143V60H61.4571H60.1714V58.7143V57.4285V56.1428V54.8571V53.5714V52.2857V51V49.7143V48.4285V47.1428H61.4571H62.7428V48.4285V49.7143H64.0285H65.3142V48.4285V47.1428H66.6H67.8857V48.4285V49.7143V51V52.2857V53.5714V54.8571V56.1428V57.4285V58.7143V60H66.6Z" fill="#FFF200"/>
<path d="M71.4857 60H70.2V58.7143V57.4285V56.1428V54.8571V53.5714V52.2857V51V49.7143V48.4285V47.1428H71.4857H72.7714H74.0571H75.3428H76.6285H77.9142V48.4285V49.7143V51V52.2857V53.5714V54.8571H76.6285H75.3428H74.0571H72.7714V56.1428V57.4285V58.7143V60H71.4857ZM74.0571 52.3071H75.3428V51.0214V49.7357H74.0571H72.7714V51.0214V52.3071H74.0571Z" fill="#FFF200"/>
<path d="M54.3428 24.4929V15.4286L51.9428 12.3V7.02857L44.2499 4.26429V0H33.6856V4.26429L25.9928 7.02857V12.3L23.5928 15.4286V24.4929L25.9928 27.7286L23.5928 35.1857L38.9785 38.5929L54.3428 35.1857L51.9428 27.7286L54.3428 24.4929Z" fill="#FFF200"/>
<path d="M38.9785 27.7285C43.2214 27.7285 46.6714 24.2785 46.6714 20.0356C46.6714 15.7928 43.2214 12.3428 38.9785 12.3428C34.7356 12.3428 31.2856 15.7928 31.2856 20.0356C31.2856 24.2785 34.7356 27.7285 38.9785 27.7285Z" fill="black"/>
</svg>
